<svg width="15" height="15" viewBox="0 0 15 15" fill="none" xmlns="http://www.w3.org/2000/svg">
<rect width="15" height="15" fill="#F5F5F5"/>
<g id="list v1">
<rect width="1920" height="2919.53" transform="translate(-542 -952)" fill="white"/>
<rect width="1920" height="2919.53" transform="translate(-542 -952)" fill="white"/>
<g id="Section">
<g id="Article">
<g clip-path="url(#clip0_8_42)">
<rect x="-282" y="-382.5" width="327.5" height="432.81" rx="16" fill="white"/>
<g id="Border">
<mask id="path-2-inside-1_8_42" fill="white">
<path d="M-282 -164.17H45.5V34.3101C45.5 43.1466 38.3365 50.3101 29.5 50.3101H-266C-274.837 50.3101 -282 43.1466 -282 34.3101V-164.17Z"/>
</mask>
<path d="M-282 -164.17H45.5H-282ZM46.5 34.3101C46.5 43.6989 38.8889 51.3101 29.5 51.3101H-266C-275.389 51.3101 -283 43.6989 -283 34.3101H-281C-281 42.5943 -274.284 49.3101 -266 49.3101H29.5C37.7843 49.3101 44.5 42.5943 44.5 34.3101H46.5ZM-266 51.3101C-275.389 51.3101 -283 43.6989 -283 34.3101V-164.17H-281V34.3101C-281 42.5943 -274.284 49.3101 -266 49.3101V51.3101ZM46.5 -164.17V34.3101C46.5 43.6989 38.8889 51.3101 29.5 51.3101V49.3101C37.7843 49.3101 44.5 42.5943 44.5 34.3101V-164.17H46.5Z" fill="#E9E9E9" mask="url(#path-2-inside-1_8_42)"/>
<g id="HorizontalBorder">
<mask id="path-4-inside-2_8_42" fill="white">
<path d="M-251 -25.0898H14.5V31.3102H-251V-25.0898Z"/>
</mask>
<path d="M-251 -24.0898H14.5V-26.0898H-251V-24.0898Z" fill="#E9E9E9" mask="url(#path-4-inside-2_8_42)"/>
<g id="Link">
<g id="SVG">
<path id="Vector" d="M14.1107 0.380127H5.55509C5.34013 0.380127 5.16619 0.55407 5.16619 0.769028C5.16619 0.983986 5.34013 1.15793 5.55509 1.15793H13.1719L0.613453 13.7163C0.461531 13.8682 0.461531 14.1143 0.613453 14.2662C0.689396 14.3421 0.788927 14.3801 0.888422 14.3801C0.987917 14.3801 1.08741 14.3421 1.16339 14.2662L13.7218 1.70783V9.3246C13.7218 9.53956 13.8957 9.7135 14.1107 9.7135C14.3257 9.7135 14.4996 9.53956 14.4996 9.3246V0.769028C14.4996 0.55407 14.3256 0.380127 14.1107 0.380127Z" fill="#405FF2"/>
</g>
</g>
</g>
</g>
</g>
</g>
</g>
<g id="Background">
<rect width="1920" height="460" transform="translate(-542 1408.44)" fill="#050B20"/>
</g>
</g>
<defs>
<clipPath id="clip0_8_42">
<rect x="-282" y="-382.5" width="327.5" height="432.81" rx="16" fill="white"/>
</clipPath>
</defs>
</svg>
