<svg width="21" height="21" viewBox="0 0 21 21" fill="none" xmlns="http://www.w3.org/2000/svg">
<path d="M13.4433 4.11315C12.6878 4.11315 12.0211 4.35759 11.4433 4.84648C10.8655 5.33537 10.51 5.93537 10.3767 6.64648H2.17666C1.99888 6.64648 1.85444 6.70204 1.74333 6.81315C1.63222 6.92426 1.57666 7.06871 1.57666 7.24648C1.57666 7.42426 1.63222 7.57982 1.74333 7.71315C1.85444 7.84648 1.99888 7.91315 2.17666 7.91315H10.3767C10.51 8.62426 10.8655 9.21315 11.4433 9.67982C12.0211 10.1465 12.6878 10.3798 13.4433 10.3798C14.1989 10.3798 14.8544 10.1465 15.41 9.67982C15.9655 9.21315 16.3322 8.62426 16.51 7.91315H18.4433C18.6211 7.91315 18.7656 7.84648 18.8767 7.71315C18.9878 7.57982 19.0433 7.42426 19.0433 7.24648C19.0433 7.06871 18.9878 6.92426 18.8767 6.81315C18.7656 6.70204 18.6211 6.64648 18.4433 6.64648H16.51C16.3322 5.93537 15.9655 5.33537 15.41 4.84648C14.8544 4.35759 14.1989 4.11315 13.4433 4.11315ZM13.4433 5.37982C13.9767 5.37982 14.4211 5.56871 14.7767 5.94648C15.1322 6.32426 15.31 6.76871 15.31 7.27982C15.31 7.79093 15.1322 8.22426 14.7767 8.57982C14.4211 8.93537 13.9767 9.11315 13.4433 9.11315C12.91 9.11315 12.4655 8.93537 12.11 8.57982C11.7544 8.22426 11.5767 7.79093 11.5767 7.27982C11.5767 6.76871 11.7544 6.32426 12.11 5.94648C12.4655 5.56871 12.91 5.37982 13.4433 5.37982ZM7.17666 10.3798C6.4211 10.3798 5.76555 10.6132 5.20999 11.0798C4.65444 11.5465 4.28777 12.1576 4.10999 12.9132H2.17666C1.99888 12.9132 1.85444 12.9687 1.74333 13.0798C1.63222 13.1909 1.57666 13.3354 1.57666 13.5132C1.57666 13.6909 1.63222 13.8354 1.74333 13.9465C1.85444 14.0576 1.99888 14.1132 2.17666 14.1132H4.10999C4.28777 14.8687 4.65444 15.4798 5.20999 15.9465C5.76555 16.4132 6.4211 16.6465 7.17666 16.6465C7.93222 16.6465 8.59888 16.4132 9.17666 15.9465C9.75444 15.4798 10.11 14.8687 10.2433 14.1132H18.4433C18.6211 14.1132 18.7656 14.0576 18.8767 13.9465C18.9878 13.8354 19.0433 13.6909 19.0433 13.5132C19.0433 13.3354 18.9878 13.1909 18.8767 13.0798C18.7656 12.9687 18.6211 12.9132 18.4433 12.9132H10.2433C10.11 12.1576 9.75444 11.5465 9.17666 11.0798C8.59888 10.6132 7.93222 10.3798 7.17666 10.3798ZM7.17666 11.6465C7.70999 11.6465 8.15444 11.8243 8.50999 12.1798C8.86555 12.5354 9.04333 12.9798 9.04333 13.5132C9.04333 14.0465 8.86555 14.4909 8.50999 14.8465C8.15444 15.202 7.70999 15.3798 7.17666 15.3798C6.64333 15.3798 6.19888 15.202 5.84333 14.8465C5.48777 14.4909 5.30999 14.0465 5.30999 13.5132C5.30999 12.9798 5.48777 12.5354 5.84333 12.1798C6.19888 11.8243 6.64333 11.6465 7.17666 11.6465Z" fill="#050B20"/>
</svg>
