<svg width="108" height="27" viewBox="0 0 108 27" fill="none" xmlns="http://www.w3.org/2000/svg">
<g clip-path="url(#clip0_9_594)">
<path d="M7.2099 0.720428C11.1999 0.720428 12.9149 2.57543 12.9149 6.35543V7.23043C12.9149 9.75043 12.1449 11.3604 10.4299 12.1654C12.4949 12.9704 13.2999 14.8254 13.2999 17.4154V19.4104C13.2999 23.1904 11.3049 25.2204 7.4549 25.2204H1.3999V0.720428H7.2099ZM6.9649 14.1954H5.2499V21.7204H7.4549C8.7499 21.7204 9.4499 21.1254 9.4499 19.3054V17.1704C9.4499 14.8954 8.7149 14.1954 6.9649 14.1954ZM7.1049 4.22043H5.2499V10.6954H6.7549C8.1899 10.6954 9.0649 10.0654 9.0649 8.10543V6.74043C9.0649 4.99043 8.4699 4.22043 7.1049 4.22043ZM20.9037 6.35543V19.5854C20.9037 21.3354 21.6737 22.0004 22.8987 22.0004C24.1237 22.0004 24.8937 21.3354 24.8937 19.5854V6.35543C24.8937 4.60543 24.1237 3.94043 22.8987 3.94043C21.6737 3.94043 20.9037 4.60543 20.9037 6.35543ZM17.0537 19.3404V6.60043C17.0537 2.68043 19.1187 0.44043 22.8987 0.44043C26.6787 0.44043 28.7437 2.68043 28.7437 6.60043V19.3404C28.7437 23.2604 26.6787 25.5004 22.8987 25.5004C19.1187 25.5004 17.0537 23.2604 17.0537 19.3404ZM41.7579 0.720428H45.3279L41.3029 12.6204L45.6079 25.2204H41.5479L38.3979 15.5254L35.2129 25.2204H31.6079L35.9129 12.6204L31.8879 0.720428H35.8779L38.7829 9.75043L41.7579 0.720428ZM56.2843 16.0854H59.9243V19.3404C59.9243 23.2604 57.9643 25.5004 54.1843 25.5004C50.4043 25.5004 48.4443 23.2604 48.4443 19.3404V6.60043C48.4443 2.68043 50.4043 0.44043 54.1843 0.44043C57.9643 0.44043 59.9243 2.68043 59.9243 6.60043V8.98043H56.2843V6.35543C56.2843 4.60543 55.5143 3.94043 54.2893 3.94043C53.0643 3.94043 52.2943 4.60543 52.2943 6.35543V19.5854C52.2943 21.3354 53.0643 21.9654 54.2893 21.9654C55.5143 21.9654 56.2843 21.3354 56.2843 19.5854V16.0854ZM72.5503 0.720428L76.4703 25.2204H72.5853L71.9203 20.7754H67.1953L66.5303 25.2204H62.9953L66.9153 0.720428H72.5503ZM69.5403 5.06043L67.6853 17.4504H71.3953L69.5403 5.06043ZM91.9832 25.2204H88.0632C87.8532 24.5904 87.7132 24.2054 87.7132 22.2104V18.3604C87.7132 16.0854 86.9432 15.2454 85.1932 15.2454H83.8632V25.2204H80.0132V0.720428H85.8232C89.8132 0.720428 91.5282 2.57543 91.5282 6.35543V8.28043C91.5282 10.8004 90.7232 12.4454 89.0082 13.2504C90.9332 14.0554 91.5632 15.9104 91.5632 18.4654V22.2454C91.5632 23.4354 91.5982 24.3104 91.9832 25.2204ZM85.7182 4.22043H83.8632V11.7454H85.3682C86.8032 11.7454 87.6782 11.1154 87.6782 9.15543V6.74043C87.6782 4.99043 87.0832 4.22043 85.7182 4.22043ZM95.3552 6.60043C95.3552 2.68043 97.2802 0.44043 101.025 0.44043C104.77 0.44043 106.695 2.68043 106.695 6.60043V7.37043H103.055V6.35543C103.055 4.60543 102.355 3.94043 101.13 3.94043C99.9052 3.94043 99.2052 4.60543 99.2052 6.35543C99.2052 11.3954 106.73 12.3404 106.73 19.3404C106.73 23.2604 104.77 25.5004 100.99 25.5004C97.2102 25.5004 95.2502 23.2604 95.2502 19.3404V17.8354H98.8902V19.5854C98.8902 21.3354 99.6602 21.9654 100.885 21.9654C102.11 21.9654 102.88 21.3354 102.88 19.5854C102.88 14.5454 95.3552 13.6004 95.3552 6.60043Z" fill="white"/>
</g>
<defs>
<clipPath id="clip0_9_594">
<rect width="108" height="26" fill="white" transform="translate(0 0.220215)"/>
</clipPath>
</defs>
</svg>
