<svg width="9" height="6" viewBox="0 0 9 6" fill="none" xmlns="http://www.w3.org/2000/svg">
<mask id="path-1-inside-1_9_440" fill="white">
<path d="M0.330078 0.879883H8.33008V5.87988H0.330078V0.879883Z"/>
</mask>
<g clip-path="url(#paint0_diamond_9_440_clip_path)" data-figma-skip-parse="true" mask="url(#path-1-inside-1_9_440)"><g transform="matrix(0.004 0 0 0.005 4.33008 0.879883)"><rect x="0" y="0" width="2250" height="2000" fill="url(#paint0_diamond_9_440)" opacity="1" shape-rendering="crispEdges"/><rect x="0" y="0" width="2250" height="2000" transform="scale(1 -1)" fill="url(#paint0_diamond_9_440)" opacity="1" shape-rendering="crispEdges"/><rect x="0" y="0" width="2250" height="2000" transform="scale(-1 1)" fill="url(#paint0_diamond_9_440)" opacity="1" shape-rendering="crispEdges"/><rect x="0" y="0" width="2250" height="2000" transform="scale(-1)" fill="url(#paint0_diamond_9_440)" opacity="1" shape-rendering="crispEdges"/></g></g><path d="M0.330078 0.879883V-4.12012H-3.66992V0.879883H0.330078ZM8.33008 0.879883H12.3301V-4.12012H8.33008V0.879883ZM0.330078 5.87988H8.33008V-4.12012H0.330078V5.87988ZM4.33008 0.879883V5.87988H12.3301V0.879883H4.33008ZM4.33008 5.87988V0.879883H-3.66992V5.87988H4.33008Z" data-figma-gradient-fill="{&#34;type&#34;:&#34;GRADIENT_DIAMOND&#34;,&#34;stops&#34;:[{&#34;color&#34;:{&#34;r&#34;:0.019607843831181526,&#34;g&#34;:0.043137256056070328,&#34;b&#34;:0.12549020349979401,&#34;a&#34;:1.0},&#34;position&#34;:0.99999988079071045},{&#34;color&#34;:{&#34;r&#34;:0.0,&#34;g&#34;:0.0,&#34;b&#34;:0.0,&#34;a&#34;:0.0},&#34;position&#34;:1.0}],&#34;stopsVar&#34;:[{&#34;color&#34;:{&#34;r&#34;:0.019607843831181526,&#34;g&#34;:0.043137256056070328,&#34;b&#34;:0.12549020349979401,&#34;a&#34;:1.0},&#34;position&#34;:0.99999988079071045},{&#34;color&#34;:{&#34;r&#34;:0.0,&#34;g&#34;:0.0,&#34;b&#34;:0.0,&#34;a&#34;:0.0},&#34;position&#34;:1.0}],&#34;transform&#34;:{&#34;m00&#34;:8.0,&#34;m01&#34;:0.0,&#34;m02&#34;:0.3300781250,&#34;m10&#34;:0.0,&#34;m11&#34;:10.0,&#34;m12&#34;:-4.12011718750},&#34;opacity&#34;:1.0,&#34;blendMode&#34;:&#34;NORMAL&#34;,&#34;visible&#34;:true}" mask="url(#path-1-inside-1_9_440)"/>
<defs>
<clipPath id="paint0_diamond_9_440_clip_path"><path d="M0.330078 0.879883V-4.12012H-3.66992V0.879883H0.330078ZM8.33008 0.879883H12.3301V-4.12012H8.33008V0.879883ZM0.330078 5.87988H8.33008V-4.12012H0.330078V5.87988ZM4.33008 0.879883V5.87988H12.3301V0.879883H4.33008ZM4.33008 5.87988V0.879883H-3.66992V5.87988H4.33008Z" mask="url(#path-1-inside-1_9_440)"/></clipPath><linearGradient id="paint0_diamond_9_440" x1="0" y1="0" x2="500" y2="500" gradientUnits="userSpaceOnUse">
<stop offset="1" stop-color="#050B20"/>
<stop offset="1" stop-opacity="0"/>
</linearGradient>
</defs>
</svg>
