<svg width="19" height="22" viewBox="0 0 19 22" fill="none" xmlns="http://www.w3.org/2000/svg">
<path d="M15.5273 11.5698C15.5273 11.6675 15.3809 14.5483 18.5547 16.062C17.9688 17.8687 15.918 21.8726 13.5254 21.8726C12.1582 21.8726 11.377 20.9937 9.81445 20.9937C8.20312 20.9937 7.32422 21.8726 6.10352 21.8726C3.75977 21.9702 1.51367 17.5757 0.878906 15.769C0.390625 14.4019 0.195312 13.0835 0.195312 11.814C0.195312 7.46826 3.07617 5.36865 5.81055 5.31982C7.12891 5.31982 8.78906 6.24756 9.52148 6.24756C10.2051 6.24756 12.1094 5.12451 13.8672 5.271C15.6738 5.41748 17.041 6.10107 17.9688 7.41943C16.3574 8.44482 15.5273 9.76318 15.5273 11.5698ZM12.793 3.56201C11.8164 4.68506 10.6445 5.31982 9.375 5.22217C9.27734 3.90381 9.76562 2.68311 10.6445 1.70654C11.4258 0.827637 12.793 0.0952148 13.9648 -0.00244141C13.9648 0.534668 14.1113 1.99951 12.793 3.56201Z" fill="#405FF2"/>
<a href="https://www.figma.com/design/PzQUNVEIeMrv8HjdXbjYra?node-id=14-2403">
<rect fill="black" fill-opacity="0" y="-1.875" width="18.75" height="28.75"/>
</a>
</svg>
