<svg width="19" height="23" viewBox="0 0 19 23" fill="none" xmlns="http://www.w3.org/2000/svg">
<path d="M15.7173 11.6997C15.7173 11.7974 15.5708 14.6782 18.7446 16.1919C18.1587 17.9985 16.1079 22.0024 13.7153 22.0024C12.3481 22.0024 11.5669 21.1235 10.0044 21.1235C8.39307 21.1235 7.51416 22.0024 6.29346 22.0024C3.94971 22.1001 1.70361 17.7056 1.06885 15.8989C0.580566 14.5317 0.385254 13.2134 0.385254 11.9438C0.385254 7.59814 3.26611 5.49854 6.00049 5.44971C7.31885 5.44971 8.979 6.37744 9.71143 6.37744C10.395 6.37744 12.2993 5.25439 14.0571 5.40088C15.8638 5.54736 17.231 6.23096 18.1587 7.54932C16.5474 8.57471 15.7173 9.89307 15.7173 11.6997ZM12.9829 3.69189C12.0063 4.81494 10.8345 5.44971 9.56494 5.35205C9.46729 4.03369 9.95557 2.81299 10.8345 1.83643C11.6157 0.95752 12.9829 0.225098 14.1548 0.127441C14.1548 0.664551 14.3013 2.12939 12.9829 3.69189Z" fill="white"/>
<a href="https://www.figma.com/design/PzQUNVEIeMrv8HjdXbjYra?node-id=19-2">
<rect fill="black" fill-opacity="0" y="-1.875" width="18.75" height="28.75"/>
</a>
</svg>
