<svg width="19" height="19" viewBox="0 0 19 19" fill="none" xmlns="http://www.w3.org/2000/svg">
<rect width="19" height="19" fill="#F5F5F5"/>
<g id="details v2">
<rect width="1920" height="6847.19" transform="translate(-1375 -584)" fill="white"/>
<rect width="1920" height="6847.19" transform="translate(-1375 -584)" fill="white"/>
<g id=" Main">
<g id="Container">
<g id="Border">
<rect x="-113.5" y="-176.5" width="398" height="321.25" rx="15.5" stroke="#E1E1E1"/>
<g id="Link">
<rect x="-82.5" y="-16.75" width="336" height="54.75" rx="15.5" fill="#405FF2"/>
<rect x="-82.5" y="-16.75" width="336" height="54.75" rx="15.5" stroke="#405FF2"/>
<g id="Icon" clip-path="url(#clip0_8_42)">
<path id="Vector" d="M8.47008 17.8701C7.91008 17.8701 7.45008 17.6901 7.09008 17.3301L1.81008 12.0501C1.41008 11.6501 1.21008 11.1801 1.21008 10.6401C1.21008 10.1001 1.41008 9.63012 1.81008 9.23012L8.89008 2.15012C9.65008 1.39012 10.5701 1.01012 11.6501 1.01012H16.1501C16.7101 1.01012 17.1801 1.21012 17.5601 1.61012C17.9401 2.01012 18.1301 2.47012 18.1301 2.99012V7.49012C18.1301 8.57012 17.7501 9.47012 16.9901 10.1901L9.85008 17.3301C9.49008 17.6901 9.03008 17.8701 8.47008 17.8701ZM11.6501 2.33012C10.9301 2.33012 10.3301 2.59012 9.85008 3.11012L2.77008 10.1901C2.61008 10.3101 2.53008 10.4601 2.53008 10.6401C2.53008 10.8201 2.61008 10.9901 2.77008 11.1501L7.99008 16.3701C8.11008 16.5301 8.27008 16.6101 8.47008 16.6101C8.67008 16.6101 8.83008 16.5301 8.95008 16.3701L16.0301 9.29012C16.5501 8.81012 16.8101 8.21012 16.8101 7.49012V2.99012C16.8101 2.83012 16.7401 2.68012 16.6001 2.54012C16.4601 2.40012 16.3101 2.33012 16.1501 2.33012H11.6501ZM13.3301 7.73012C12.8101 7.73012 12.3501 7.53012 11.9501 7.13012C11.5501 6.73012 11.3501 6.26012 11.3501 5.72012C11.3501 5.18012 11.5501 4.72012 11.9501 4.34012C12.3501 3.96012 12.8201 3.77012 13.3601 3.77012C13.9001 3.77012 14.3601 3.96012 14.7401 4.34012C15.1201 4.72012 15.3101 5.18012 15.3101 5.72012C15.3101 6.26012 15.1201 6.73012 14.7401 7.13012C14.3601 7.53012 13.8901 7.73012 13.3301 7.73012ZM13.3301 5.09012C13.1701 5.09012 13.0201 5.15012 12.8801 5.27012C12.7401 5.39012 12.6701 5.54012 12.6701 5.72012C12.6701 5.90012 12.7401 6.06012 12.8801 6.20012C13.0201 6.34012 13.1801 6.41012 13.3601 6.41012C13.5401 6.41012 13.6901 6.34012 13.8101 6.20012C13.9301 6.06012 13.9901 5.90012 13.9901 5.72012C13.9901 5.54012 13.9301 5.39012 13.8101 5.27012C13.6901 5.15012 13.5301 5.09012 13.3301 5.09012Z" fill="white"/>
</g>
</g>
</g>
</g>
</g>
</g>
<defs>
<clipPath id="clip0_8_42">
<rect width="18" height="18" fill="white" transform="matrix(1 0 0 -1 0.670044 18.4702)"/>
</clipPath>
</defs>
</svg>
