<svg width="19" height="19" viewBox="0 0 19 19" fill="none" xmlns="http://www.w3.org/2000/svg">
<rect width="19" height="19" fill="#F5F5F5"/>
<g id="list v1">
<rect width="1920" height="2919.53" transform="translate(-513 -869)" fill="white"/>
<rect width="1920" height="2919.53" transform="translate(-513 -869)" fill="white"/>
<g id="Section">
<g id="Article">
<g clip-path="url(#clip0_8_42)">
<rect x="-253" y="-299.5" width="327.5" height="432.81" rx="16" fill="white"/>
<g id="Border">
<mask id="path-2-inside-1_8_42" fill="white">
<path d="M-253 -81.1699H74.5V117.31C74.5 126.147 67.3365 133.31 58.5 133.31H-237C-245.837 133.31 -253 126.147 -253 117.31V-81.1699Z"/>
</mask>
<path d="M-253 -81.1699H74.5H-253ZM75.5 117.31C75.5 126.699 67.8889 134.31 58.5 134.31H-237C-246.389 134.31 -254 126.699 -254 117.31H-252C-252 125.594 -245.284 132.31 -237 132.31H58.5C66.7843 132.31 73.5 125.594 73.5 117.31H75.5ZM-237 134.31C-246.389 134.31 -254 126.699 -254 117.31V-81.1699H-252V117.31C-252 125.594 -245.284 132.31 -237 132.31V134.31ZM75.5 -81.1699V117.31C75.5 126.699 67.8889 134.31 58.5 134.31V132.31C66.7843 132.31 73.5 125.594 73.5 117.31V-81.1699H75.5Z" fill="#E9E9E9" mask="url(#path-2-inside-1_8_42)"/>
<g id="HorizontalBorder">
<mask id="path-4-inside-2_8_42" fill="white">
<path d="M-222 -15.98H43.5V53.31H-222V-15.98Z"/>
</mask>
<path d="M-222 -14.98H43.5V-16.98H-222V-14.98Z" fill="#E9E9E9" mask="url(#path-4-inside-2_8_42)"/>
<g id="Icon">
<path id="Vector" d="M3.72018 1.70009C3.16018 1.70009 2.68018 1.90009 2.28018 2.30009C1.88018 2.70009 1.68018 3.19009 1.68018 3.77009C1.68018 4.35009 1.88018 4.84009 2.28018 5.24009C2.68018 5.64009 3.16018 5.84009 3.72018 5.84009C4.28018 5.84009 4.76018 5.64009 5.16018 5.24009C5.56018 4.84009 5.76018 4.35009 5.76018 3.77009C5.76018 3.19009 5.56018 2.70009 5.16018 2.30009C4.76018 1.90009 4.28018 1.70009 3.72018 1.70009ZM3.72018 2.84009C3.96018 2.84009 4.18018 2.93009 4.38018 3.11009C4.58018 3.29009 4.68018 3.51009 4.68018 3.77009C4.68018 4.03009 4.58018 4.25009 4.38018 4.43009C4.18018 4.61009 3.96018 4.70009 3.72018 4.70009C3.48018 4.70009 3.26018 4.61009 3.06018 4.43009C2.86018 4.25009 2.76018 4.03009 2.76018 3.77009C2.76018 3.51009 2.86018 3.29009 3.06018 3.11009C3.26018 2.93009 3.48018 2.84009 3.72018 2.84009ZM3.72018 12.2001C3.16018 12.2001 2.68018 12.4001 2.28018 12.8001C1.88018 13.2001 1.68018 13.6901 1.68018 14.2701C1.68018 14.8501 1.88018 15.3401 2.28018 15.7401C2.68018 16.1401 3.16018 16.3401 3.72018 16.3401C4.28018 16.3401 4.76018 16.1401 5.16018 15.7401C5.56018 15.3401 5.76018 14.8501 5.76018 14.2701C5.76018 13.6901 5.56018 13.2001 5.16018 12.8001C4.76018 12.4001 4.28018 12.2001 3.72018 12.2001ZM3.72018 13.3401C3.96018 13.3401 4.18018 13.4301 4.38018 13.6101C4.58018 13.7901 4.68018 14.0101 4.68018 14.2701C4.68018 14.5301 4.58018 14.7501 4.38018 14.9301C4.18018 15.1101 3.96018 15.2001 3.72018 15.2001C3.48018 15.2001 3.26018 15.1101 3.06018 14.9301C2.86018 14.7501 2.76018 14.5301 2.76018 14.2701C2.76018 14.0101 2.86018 13.7901 3.06018 13.6101C3.26018 13.4301 3.48018 13.3401 3.72018 13.3401ZM9.72018 1.70009C9.16018 1.70009 8.68018 1.90009 8.28018 2.30009C7.88018 2.70009 7.68018 3.19009 7.68018 3.77009C7.68018 4.35009 7.88018 4.84009 8.28018 5.24009C8.68018 5.64009 9.16018 5.84009 9.72018 5.84009C10.2802 5.84009 10.7602 5.64009 11.1602 5.24009C11.5602 4.84009 11.7602 4.35009 11.7602 3.77009C11.7602 3.19009 11.5602 2.70009 11.1602 2.30009C10.7602 1.90009 10.2802 1.70009 9.72018 1.70009ZM9.72018 2.84009C9.96018 2.84009 10.1802 2.93009 10.3802 3.11009C10.5802 3.29009 10.6802 3.51009 10.6802 3.77009C10.6802 4.03009 10.5802 4.25009 10.3802 4.43009C10.1802 4.61009 9.96018 4.70009 9.72018 4.70009C9.48018 4.70009 9.26018 4.61009 9.06018 4.43009C8.86018 4.25009 8.76018 4.03009 8.76018 3.77009C8.76018 3.51009 8.86018 3.29009 9.06018 3.11009C9.26018 2.93009 9.48018 2.84009 9.72018 2.84009ZM9.72018 12.2001C9.16018 12.2001 8.68018 12.4001 8.28018 12.8001C7.88018 13.2001 7.68018 13.6901 7.68018 14.2701C7.68018 14.8501 7.88018 15.3401 8.28018 15.7401C8.68018 16.1401 9.16018 16.3401 9.72018 16.3401C10.2802 16.3401 10.7602 16.1401 11.1602 15.7401C11.5602 15.3401 11.7602 14.8501 11.7602 14.2701C11.7602 13.6901 11.5602 13.2001 11.1602 12.8001C10.7602 12.4001 10.2802 12.2001 9.72018 12.2001ZM9.72018 13.3401C9.96018 13.3401 10.1802 13.4301 10.3802 13.6101C10.5802 13.7901 10.6802 14.0101 10.6802 14.2701C10.6802 14.5301 10.5802 14.7501 10.3802 14.9301C10.1802 15.1101 9.96018 15.2001 9.72018 15.2001C9.48018 15.2001 9.26018 15.1101 9.06018 14.9301C8.86018 14.7501 8.76018 14.5301 8.76018 14.2701C8.76018 14.0101 8.86018 13.7901 9.06018 13.6101C9.26018 13.4301 9.48018 13.3401 9.72018 13.3401ZM15.7202 1.70009C15.1602 1.70009 14.6802 1.90009 14.2802 2.30009C13.8802 2.70009 13.6802 3.19009 13.6802 3.77009C13.6802 4.35009 13.8802 4.84009 14.2802 5.24009C14.6802 5.64009 15.1602 5.84009 15.7202 5.84009C16.2802 5.84009 16.7602 5.64009 17.1602 5.24009C17.5602 4.84009 17.7602 4.35009 17.7602 3.77009C17.7602 3.19009 17.5602 2.70009 17.1602 2.30009C16.7602 1.90009 16.2802 1.70009 15.7202 1.70009ZM15.7202 2.84009C15.9602 2.84009 16.1802 2.93009 16.3802 3.11009C16.5802 3.29009 16.6802 3.51009 16.6802 3.77009C16.6802 4.03009 16.5802 4.25009 16.3802 4.43009C16.1802 4.61009 15.9602 4.70009 15.7202 4.70009C15.4802 4.70009 15.2602 4.61009 15.0602 4.43009C14.8602 4.25009 14.7602 4.03009 14.7602 3.77009C14.7602 3.51009 14.8602 3.29009 15.0602 3.11009C15.2602 2.93009 15.4802 2.84009 15.7202 2.84009ZM15.7202 12.2001C15.1602 12.2001 14.6802 12.4001 14.2802 12.8001C13.8802 13.2001 13.6802 13.6901 13.6802 14.2701C13.6802 14.8501 13.8802 15.3401 14.2802 15.7401C14.6802 16.1401 15.1602 16.3401 15.7202 16.3401C16.2802 16.3401 16.7602 16.1401 17.1602 15.7401C17.5602 15.3401 17.7602 14.8501 17.7602 14.2701C17.7602 13.6901 17.5602 13.2001 17.1602 12.8001C16.7602 12.4001 16.2802 12.2001 15.7202 12.2001ZM15.7202 13.3401C15.9602 13.3401 16.1802 13.4301 16.3802 13.6101C16.5802 13.7901 16.6802 14.0101 16.6802 14.2701C16.6802 14.5301 16.5802 14.7501 16.3802 14.9301C16.1802 15.1101 15.9602 15.2001 15.7202 15.2001C15.4802 15.2001 15.2602 15.1101 15.0602 14.9301C14.8602 14.7501 14.7602 14.5301 14.7602 14.2701C14.7602 14.0101 14.8602 13.7901 15.0602 13.6101C15.2602 13.4301 15.4802 13.3401 15.7202 13.3401ZM3.18018 5.24009V12.7401C3.18018 12.9001 3.23018 13.0401 3.33018 13.1601C3.43018 13.2801 3.56018 13.3401 3.72018 13.3401C3.88018 13.3401 4.01018 13.2801 4.11018 13.1601C4.21018 13.0401 4.26018 12.9201 4.26018 12.8001V5.24009C4.26018 5.12009 4.21018 5.00009 4.11018 4.88009C4.01018 4.76009 3.88018 4.70009 3.72018 4.70009C3.56018 4.70009 3.43018 4.76009 3.33018 4.88009C3.23018 5.00009 3.18018 5.12009 3.18018 5.24009ZM9.18018 5.24009V12.7401C9.18018 12.9001 9.23018 13.0401 9.33018 13.1601C9.43018 13.2801 9.56018 13.3401 9.72018 13.3401C9.88018 13.3401 10.0102 13.2801 10.1102 13.1601C10.2102 13.0401 10.2602 12.9201 10.2602 12.8001V5.24009C10.2602 5.12009 10.2102 5.00009 10.1102 4.88009C10.0102 4.76009 9.88018 4.70009 9.72018 4.70009C9.56018 4.70009 9.43018 4.76009 9.33018 4.88009C9.23018 5.00009 9.18018 5.12009 9.18018 5.24009ZM15.1802 5.24009V8.24009C15.1802 8.32009 15.1602 8.38009 15.1202 8.42009C15.0802 8.46009 15.0402 8.48009 15.0002 8.48009H3.72018C3.56018 8.48009 3.43018 8.53009 3.33018 8.63009C3.23018 8.73009 3.18018 8.86009 3.18018 9.02009C3.18018 9.18009 3.23018 9.31009 3.33018 9.41009C3.43018 9.51009 3.56018 9.56009 3.72018 9.56009H15.0002C15.3602 9.56009 15.6602 9.44009 15.9002 9.20009C16.1402 8.96009 16.2602 8.64009 16.2602 8.24009V5.30009C16.2602 5.14009 16.2102 5.00009 16.1102 4.88009C16.0102 4.76009 15.8802 4.70009 15.7202 4.70009C15.5602 4.70009 15.4302 4.76009 15.3302 4.88009C15.2302 5.00009 15.1802 5.12009 15.1802 5.24009Z" fill="#050B20"/>
</g>
</g>
</g>
</g>
</g>
</g>
<g id="Background">
<rect width="1920" height="460" transform="translate(-513 1491.44)" fill="#050B20"/>
</g>
</g>
<defs>
<clipPath id="clip0_8_42">
<rect x="-253" y="-299.5" width="327.5" height="432.81" rx="16" fill="white"/>
</clipPath>
</defs>
</svg>
