<svg width="19" height="19" viewBox="0 0 19 19" fill="none" xmlns="http://www.w3.org/2000/svg">
<rect width="19" height="19" fill="#F5F5F5"/>
<g id="details v2">
<rect width="1920" height="6847.19" transform="translate(-536 -346)" fill="white"/>
<rect width="1920" height="6847.19" transform="translate(-536 -346)" fill="white"/>
<g id=" Main">
<g id="Background">
<rect x="-19.6401" y="-8.75" width="117.52" height="39.75" rx="19.875" fill="#E9F2FF"/>
<g id="Icon">
<path id="Vector" d="M3.35982 2.65004C2.79982 2.65004 2.31982 2.85004 1.91982 3.25004C1.51982 3.65004 1.31982 4.14004 1.31982 4.72004C1.31982 5.30004 1.51982 5.79004 1.91982 6.19004C2.31982 6.59004 2.79982 6.79004 3.35982 6.79004C3.91982 6.79004 4.39982 6.59004 4.79982 6.19004C5.19982 5.79004 5.39982 5.30004 5.39982 4.72004C5.39982 4.14004 5.19982 3.65004 4.79982 3.25004C4.39982 2.85004 3.91982 2.65004 3.35982 2.65004ZM3.35982 3.79004C3.59982 3.79004 3.81982 3.88004 4.01982 4.06004C4.21982 4.24004 4.31982 4.46004 4.31982 4.72004C4.31982 4.98004 4.21982 5.20004 4.01982 5.38004C3.81982 5.56004 3.59982 5.65004 3.35982 5.65004C3.11982 5.65004 2.89982 5.56004 2.69982 5.38004C2.49982 5.20004 2.39982 4.98004 2.39982 4.72004C2.39982 4.46004 2.49982 4.24004 2.69982 4.06004C2.89982 3.88004 3.11982 3.79004 3.35982 3.79004ZM3.35982 13.15C2.79982 13.15 2.31982 13.35 1.91982 13.75C1.51982 14.15 1.31982 14.64 1.31982 15.22C1.31982 15.8 1.51982 16.29 1.91982 16.69C2.31982 17.09 2.79982 17.29 3.35982 17.29C3.91982 17.29 4.39982 17.09 4.79982 16.69C5.19982 16.29 5.39982 15.8 5.39982 15.22C5.39982 14.64 5.19982 14.15 4.79982 13.75C4.39982 13.35 3.91982 13.15 3.35982 13.15ZM3.35982 14.29C3.59982 14.29 3.81982 14.38 4.01982 14.56C4.21982 14.74 4.31982 14.96 4.31982 15.22C4.31982 15.48 4.21982 15.7 4.01982 15.88C3.81982 16.06 3.59982 16.15 3.35982 16.15C3.11982 16.15 2.89982 16.06 2.69982 15.88C2.49982 15.7 2.39982 15.48 2.39982 15.22C2.39982 14.96 2.49982 14.74 2.69982 14.56C2.89982 14.38 3.11982 14.29 3.35982 14.29ZM9.35982 2.65004C8.79982 2.65004 8.31982 2.85004 7.91982 3.25004C7.51982 3.65004 7.31982 4.14004 7.31982 4.72004C7.31982 5.30004 7.51982 5.79004 7.91982 6.19004C8.31982 6.59004 8.79982 6.79004 9.35982 6.79004C9.91982 6.79004 10.3998 6.59004 10.7998 6.19004C11.1998 5.79004 11.3998 5.30004 11.3998 4.72004C11.3998 4.14004 11.1998 3.65004 10.7998 3.25004C10.3998 2.85004 9.91982 2.65004 9.35982 2.65004ZM9.35982 3.79004C9.59982 3.79004 9.81982 3.88004 10.0198 4.06004C10.2198 4.24004 10.3198 4.46004 10.3198 4.72004C10.3198 4.98004 10.2198 5.20004 10.0198 5.38004C9.81982 5.56004 9.59982 5.65004 9.35982 5.65004C9.11982 5.65004 8.89982 5.56004 8.69982 5.38004C8.49982 5.20004 8.39982 4.98004 8.39982 4.72004C8.39982 4.46004 8.49982 4.24004 8.69982 4.06004C8.89982 3.88004 9.11982 3.79004 9.35982 3.79004ZM9.35982 13.15C8.79982 13.15 8.31982 13.35 7.91982 13.75C7.51982 14.15 7.31982 14.64 7.31982 15.22C7.31982 15.8 7.51982 16.29 7.91982 16.69C8.31982 17.09 8.79982 17.29 9.35982 17.29C9.91982 17.29 10.3998 17.09 10.7998 16.69C11.1998 16.29 11.3998 15.8 11.3998 15.22C11.3998 14.64 11.1998 14.15 10.7998 13.75C10.3998 13.35 9.91982 13.15 9.35982 13.15ZM9.35982 14.29C9.59982 14.29 9.81982 14.38 10.0198 14.56C10.2198 14.74 10.3198 14.96 10.3198 15.22C10.3198 15.48 10.2198 15.7 10.0198 15.88C9.81982 16.06 9.59982 16.15 9.35982 16.15C9.11982 16.15 8.89982 16.06 8.69982 15.88C8.49982 15.7 8.39982 15.48 8.39982 15.22C8.39982 14.96 8.49982 14.74 8.69982 14.56C8.89982 14.38 9.11982 14.29 9.35982 14.29ZM15.3598 2.65004C14.7998 2.65004 14.3198 2.85004 13.9198 3.25004C13.5198 3.65004 13.3198 4.14004 13.3198 4.72004C13.3198 5.30004 13.5198 5.79004 13.9198 6.19004C14.3198 6.59004 14.7998 6.79004 15.3598 6.79004C15.9198 6.79004 16.3998 6.59004 16.7998 6.19004C17.1998 5.79004 17.3998 5.30004 17.3998 4.72004C17.3998 4.14004 17.1998 3.65004 16.7998 3.25004C16.3998 2.85004 15.9198 2.65004 15.3598 2.65004ZM15.3598 3.79004C15.5998 3.79004 15.8198 3.88004 16.0198 4.06004C16.2198 4.24004 16.3198 4.46004 16.3198 4.72004C16.3198 4.98004 16.2198 5.20004 16.0198 5.38004C15.8198 5.56004 15.5998 5.65004 15.3598 5.65004C15.1198 5.65004 14.8998 5.56004 14.6998 5.38004C14.4998 5.20004 14.3998 4.98004 14.3998 4.72004C14.3998 4.46004 14.4998 4.24004 14.6998 4.06004C14.8998 3.88004 15.1198 3.79004 15.3598 3.79004ZM15.3598 13.15C14.7998 13.15 14.3198 13.35 13.9198 13.75C13.5198 14.15 13.3198 14.64 13.3198 15.22C13.3198 15.8 13.5198 16.29 13.9198 16.69C14.3198 17.09 14.7998 17.29 15.3598 17.29C15.9198 17.29 16.3998 17.09 16.7998 16.69C17.1998 16.29 17.3998 15.8 17.3998 15.22C17.3998 14.64 17.1998 14.15 16.7998 13.75C16.3998 13.35 15.9198 13.15 15.3598 13.15ZM15.3598 14.29C15.5998 14.29 15.8198 14.38 16.0198 14.56C16.2198 14.74 16.3198 14.96 16.3198 15.22C16.3198 15.48 16.2198 15.7 16.0198 15.88C15.8198 16.06 15.5998 16.15 15.3598 16.15C15.1198 16.15 14.8998 16.06 14.6998 15.88C14.4998 15.7 14.3998 15.48 14.3998 15.22C14.3998 14.96 14.4998 14.74 14.6998 14.56C14.8998 14.38 15.1198 14.29 15.3598 14.29ZM2.81982 6.19004V13.69C2.81982 13.85 2.86982 13.99 2.96982 14.11C3.06982 14.23 3.19982 14.29 3.35982 14.29C3.51982 14.29 3.64982 14.23 3.74982 14.11C3.84982 13.99 3.89982 13.87 3.89982 13.75V6.19004C3.89982 6.07004 3.84982 5.95004 3.74982 5.83004C3.64982 5.71004 3.51982 5.65004 3.35982 5.65004C3.19982 5.65004 3.06982 5.71004 2.96982 5.83004C2.86982 5.95004 2.81982 6.07004 2.81982 6.19004ZM8.81982 6.19004V13.69C8.81982 13.85 8.86982 13.99 8.96982 14.11C9.06982 14.23 9.19982 14.29 9.35982 14.29C9.51982 14.29 9.64982 14.23 9.74982 14.11C9.84982 13.99 9.89982 13.87 9.89982 13.75V6.19004C9.89982 6.07004 9.84982 5.95004 9.74982 5.83004C9.64982 5.71004 9.51982 5.65004 9.35982 5.65004C9.19982 5.65004 9.06982 5.71004 8.96982 5.83004C8.86982 5.95004 8.81982 6.07004 8.81982 6.19004ZM14.8198 6.19004V9.19004C14.8198 9.27004 14.7998 9.33004 14.7598 9.37004C14.7198 9.41004 14.6798 9.43004 14.6398 9.43004H3.35982C3.19982 9.43004 3.06982 9.48004 2.96982 9.58004C2.86982 9.68004 2.81982 9.81004 2.81982 9.97004C2.81982 10.13 2.86982 10.26 2.96982 10.36C3.06982 10.46 3.19982 10.51 3.35982 10.51H14.6398C14.9998 10.51 15.2998 10.39 15.5398 10.15C15.7798 9.91004 15.8998 9.59004 15.8998 9.19004V6.25004C15.8998 6.09004 15.8498 5.95004 15.7498 5.83004C15.6498 5.71004 15.5198 5.65004 15.3598 5.65004C15.1998 5.65004 15.0698 5.71004 14.9698 5.83004C14.8698 5.95004 14.8198 6.07004 14.8198 6.19004Z" fill="#405FF2"/>
</g>
</g>
</g>
</g>
</svg>
