<svg width="141" height="40" viewBox="0 0 141 40" fill="none" xmlns="http://www.w3.org/2000/svg">
<rect x="0.22998" y="0.25" width="140.34" height="39.75" rx="19.875" fill="#E9F2FF"/>
<path d="M23.2299 11.65C22.6699 11.65 22.1899 11.85 21.7899 12.25C21.3899 12.65 21.1899 13.14 21.1899 13.72C21.1899 14.3 21.3899 14.79 21.7899 15.19C22.1899 15.59 22.6699 15.79 23.2299 15.79C23.7899 15.79 24.2699 15.59 24.6699 15.19C25.0699 14.79 25.2699 14.3 25.2699 13.72C25.2699 13.14 25.0699 12.65 24.6699 12.25C24.2699 11.85 23.7899 11.65 23.2299 11.65ZM23.2299 12.79C23.4699 12.79 23.6899 12.88 23.8899 13.06C24.0899 13.24 24.1899 13.46 24.1899 13.72C24.1899 13.98 24.0899 14.2 23.8899 14.38C23.6899 14.56 23.4699 14.65 23.2299 14.65C22.9899 14.65 22.7699 14.56 22.5699 14.38C22.3699 14.2 22.2699 13.98 22.2699 13.72C22.2699 13.46 22.3699 13.24 22.5699 13.06C22.7699 12.88 22.9899 12.79 23.2299 12.79ZM23.2299 22.15C22.6699 22.15 22.1899 22.35 21.7899 22.75C21.3899 23.15 21.1899 23.64 21.1899 24.22C21.1899 24.8 21.3899 25.29 21.7899 25.69C22.1899 26.09 22.6699 26.29 23.2299 26.29C23.7899 26.29 24.2699 26.09 24.6699 25.69C25.0699 25.29 25.2699 24.8 25.2699 24.22C25.2699 23.64 25.0699 23.15 24.6699 22.75C24.2699 22.35 23.7899 22.15 23.2299 22.15ZM23.2299 23.29C23.4699 23.29 23.6899 23.38 23.8899 23.56C24.0899 23.74 24.1899 23.96 24.1899 24.22C24.1899 24.48 24.0899 24.7 23.8899 24.88C23.6899 25.06 23.4699 25.15 23.2299 25.15C22.9899 25.15 22.7699 25.06 22.5699 24.88C22.3699 24.7 22.2699 24.48 22.2699 24.22C22.2699 23.96 22.3699 23.74 22.5699 23.56C22.7699 23.38 22.9899 23.29 23.2299 23.29ZM29.2299 11.65C28.6699 11.65 28.1899 11.85 27.7899 12.25C27.3899 12.65 27.1899 13.14 27.1899 13.72C27.1899 14.3 27.3899 14.79 27.7899 15.19C28.1899 15.59 28.6699 15.79 29.2299 15.79C29.7899 15.79 30.2699 15.59 30.6699 15.19C31.0699 14.79 31.2699 14.3 31.2699 13.72C31.2699 13.14 31.0699 12.65 30.6699 12.25C30.2699 11.85 29.7899 11.65 29.2299 11.65ZM29.2299 12.79C29.4699 12.79 29.6899 12.88 29.8899 13.06C30.0899 13.24 30.1899 13.46 30.1899 13.72C30.1899 13.98 30.0899 14.2 29.8899 14.38C29.6899 14.56 29.4699 14.65 29.2299 14.65C28.9899 14.65 28.7699 14.56 28.5699 14.38C28.3699 14.2 28.2699 13.98 28.2699 13.72C28.2699 13.46 28.3699 13.24 28.5699 13.06C28.7699 12.88 28.9899 12.79 29.2299 12.79ZM29.2299 22.15C28.6699 22.15 28.1899 22.35 27.7899 22.75C27.3899 23.15 27.1899 23.64 27.1899 24.22C27.1899 24.8 27.3899 25.29 27.7899 25.69C28.1899 26.09 28.6699 26.29 29.2299 26.29C29.7899 26.29 30.2699 26.09 30.6699 25.69C31.0699 25.29 31.2699 24.8 31.2699 24.22C31.2699 23.64 31.0699 23.15 30.6699 22.75C30.2699 22.35 29.7899 22.15 29.2299 22.15ZM29.2299 23.29C29.4699 23.29 29.6899 23.38 29.8899 23.56C30.0899 23.74 30.1899 23.96 30.1899 24.22C30.1899 24.48 30.0899 24.7 29.8899 24.88C29.6899 25.06 29.4699 25.15 29.2299 25.15C28.9899 25.15 28.7699 25.06 28.5699 24.88C28.3699 24.7 28.2699 24.48 28.2699 24.22C28.2699 23.96 28.3699 23.74 28.5699 23.56C28.7699 23.38 28.9899 23.29 29.2299 23.29ZM35.2299 11.65C34.6699 11.65 34.1899 11.85 33.7899 12.25C33.3899 12.65 33.1899 13.14 33.1899 13.72C33.1899 14.3 33.3899 14.79 33.7899 15.19C34.1899 15.59 34.6699 15.79 35.2299 15.79C35.7899 15.79 36.2699 15.59 36.6699 15.19C37.0699 14.79 37.2699 14.3 37.2699 13.72C37.2699 13.14 37.0699 12.65 36.6699 12.25C36.2699 11.85 35.7899 11.65 35.2299 11.65ZM35.2299 12.79C35.4699 12.79 35.6899 12.88 35.8899 13.06C36.0899 13.24 36.1899 13.46 36.1899 13.72C36.1899 13.98 36.0899 14.2 35.8899 14.38C35.6899 14.56 35.4699 14.65 35.2299 14.65C34.9899 14.65 34.7699 14.56 34.5699 14.38C34.3699 14.2 34.2699 13.98 34.2699 13.72C34.2699 13.46 34.3699 13.24 34.5699 13.06C34.7699 12.88 34.9899 12.79 35.2299 12.79ZM35.2299 22.15C34.6699 22.15 34.1899 22.35 33.7899 22.75C33.3899 23.15 33.1899 23.64 33.1899 24.22C33.1899 24.8 33.3899 25.29 33.7899 25.69C34.1899 26.09 34.6699 26.29 35.2299 26.29C35.7899 26.29 36.2699 26.09 36.6699 25.69C37.0699 25.29 37.2699 24.8 37.2699 24.22C37.2699 23.64 37.0699 23.15 36.6699 22.75C36.2699 22.35 35.7899 22.15 35.2299 22.15ZM35.2299 23.29C35.4699 23.29 35.6899 23.38 35.8899 23.56C36.0899 23.74 36.1899 23.96 36.1899 24.22C36.1899 24.48 36.0899 24.7 35.8899 24.88C35.6899 25.06 35.4699 25.15 35.2299 25.15C34.9899 25.15 34.7699 25.06 34.5699 24.88C34.3699 24.7 34.2699 24.48 34.2699 24.22C34.2699 23.96 34.3699 23.74 34.5699 23.56C34.7699 23.38 34.9899 23.29 35.2299 23.29ZM22.6899 15.19V22.69C22.6899 22.85 22.7399 22.99 22.8399 23.11C22.9399 23.23 23.0699 23.29 23.2299 23.29C23.3899 23.29 23.5199 23.23 23.6199 23.11C23.7199 22.99 23.7699 22.87 23.7699 22.75V15.19C23.7699 15.07 23.7199 14.95 23.6199 14.83C23.5199 14.71 23.3899 14.65 23.2299 14.65C23.0699 14.65 22.9399 14.71 22.8399 14.83C22.7399 14.95 22.6899 15.07 22.6899 15.19ZM28.6899 15.19V22.69C28.6899 22.85 28.7399 22.99 28.8399 23.11C28.9399 23.23 29.0699 23.29 29.2299 23.29C29.3899 23.29 29.5199 23.23 29.6199 23.11C29.7199 22.99 29.7699 22.87 29.7699 22.75V15.19C29.7699 15.07 29.7199 14.95 29.6199 14.83C29.5199 14.71 29.3899 14.65 29.2299 14.65C29.0699 14.65 28.9399 14.71 28.8399 14.83C28.7399 14.95 28.6899 15.07 28.6899 15.19ZM34.6899 15.19V18.19C34.6899 18.27 34.6699 18.33 34.6299 18.37C34.5899 18.41 34.5499 18.43 34.5099 18.43H23.2299C23.0699 18.43 22.9399 18.48 22.8399 18.58C22.7399 18.68 22.6899 18.81 22.6899 18.97C22.6899 19.13 22.7399 19.26 22.8399 19.36C22.9399 19.46 23.0699 19.51 23.2299 19.51H34.5099C34.8699 19.51 35.1699 19.39 35.4099 19.15C35.6499 18.91 35.7699 18.59 35.7699 18.19V15.25C35.7699 15.09 35.7199 14.95 35.6199 14.83C35.5199 14.71 35.3899 14.65 35.2299 14.65C35.0699 14.65 34.9399 14.71 34.8399 14.83C34.7399 14.95 34.6899 15.07 34.6899 15.19Z" fill="#405FF2"/>
<path d="M48.68 24.375L52.55 13.875H53.885L57.74 24.375H56.405L55.445 21.675H50.975L50 24.375H48.68ZM51.35 20.655H55.07L53.21 15.465L51.35 20.655ZM61.7798 24.555C60.8998 24.555 60.1998 24.29 59.6798 23.76C59.1598 23.22 58.8998 22.395 58.8998 21.285V16.935H60.1598V21.15C60.1598 22.7 60.7948 23.475 62.0648 23.475C62.7148 23.475 63.2498 23.245 63.6698 22.785C64.0998 22.315 64.3148 21.65 64.3148 20.79V16.935H65.5748V24.375H64.4348L64.3448 23.04C64.1148 23.51 63.7698 23.88 63.3098 24.15C62.8598 24.42 62.3498 24.555 61.7798 24.555ZM70.5888 24.375C69.9088 24.375 69.3738 24.21 68.9838 23.88C68.5938 23.55 68.3988 22.955 68.3988 22.095V18H67.1088V16.935H68.3988L68.5638 15.15H69.6588V16.935H71.8488V18H69.6588V22.095C69.6588 22.565 69.7538 22.885 69.9438 23.055C70.1338 23.215 70.4688 23.295 70.9488 23.295H71.7288V24.375H70.5888ZM76.6345 24.555C75.9345 24.555 75.3045 24.395 74.7445 24.075C74.1845 23.755 73.7395 23.305 73.4095 22.725C73.0895 22.135 72.9295 21.445 72.9295 20.655C72.9295 19.865 73.0945 19.18 73.4245 18.6C73.7545 18.01 74.1995 17.555 74.7595 17.235C75.3295 16.915 75.9645 16.755 76.6645 16.755C77.3645 16.755 77.9945 16.915 78.5545 17.235C79.1145 17.555 79.5545 18.01 79.8745 18.6C80.2045 19.18 80.3695 19.865 80.3695 20.655C80.3695 21.445 80.2045 22.135 79.8745 22.725C79.5445 23.305 79.0945 23.755 78.5245 24.075C77.9645 24.395 77.3345 24.555 76.6345 24.555ZM76.6345 23.475C77.0645 23.475 77.4645 23.37 77.8345 23.16C78.2045 22.95 78.5045 22.635 78.7345 22.215C78.9645 21.795 79.0795 21.275 79.0795 20.655C79.0795 20.035 78.9645 19.515 78.7345 19.095C78.5145 18.675 78.2195 18.36 77.8495 18.15C77.4795 17.94 77.0845 17.835 76.6645 17.835C76.2345 17.835 75.8345 17.94 75.4645 18.15C75.0945 18.36 74.7945 18.675 74.5645 19.095C74.3345 19.515 74.2195 20.035 74.2195 20.655C74.2195 21.275 74.3345 21.795 74.5645 22.215C74.7945 22.635 75.0895 22.95 75.4495 23.16C75.8195 23.37 76.2145 23.475 76.6345 23.475ZM82.1214 24.375V16.935H83.2614L83.3514 18.015C83.5914 17.615 83.9114 17.305 84.3114 17.085C84.7114 16.865 85.1614 16.755 85.6614 16.755C86.2514 16.755 86.7564 16.875 87.1764 17.115C87.6064 17.355 87.9364 17.72 88.1664 18.21C88.4264 17.76 88.7814 17.405 89.2314 17.145C89.6914 16.885 90.1864 16.755 90.7164 16.755C91.6064 16.755 92.3164 17.025 92.8464 17.565C93.3764 18.095 93.6414 18.915 93.6414 20.025V24.375H92.3964V20.16C92.3964 19.39 92.2414 18.81 91.9314 18.42C91.6214 18.03 91.1764 17.835 90.5964 17.835C89.9964 17.835 89.4964 18.07 89.0964 18.54C88.7064 19 88.5114 19.66 88.5114 20.52V24.375H87.2514V20.16C87.2514 19.39 87.0964 18.81 86.7864 18.42C86.4764 18.03 86.0314 17.835 85.4514 17.835C84.8614 17.835 84.3664 18.07 83.9664 18.54C83.5764 19 83.3814 19.66 83.3814 20.52V24.375H82.1214ZM98.0144 24.555C97.3944 24.555 96.8794 24.45 96.4694 24.24C96.0594 24.03 95.7544 23.75 95.5544 23.4C95.3544 23.05 95.2544 22.67 95.2544 22.26C95.2544 21.5 95.5444 20.915 96.1244 20.505C96.7044 20.095 97.4944 19.89 98.4944 19.89H100.504V19.8C100.504 19.15 100.334 18.66 99.9944 18.33C99.6544 17.99 99.1994 17.82 98.6294 17.82C98.1394 17.82 97.7144 17.945 97.3544 18.195C97.0044 18.435 96.7844 18.79 96.6944 19.26H95.4044C95.4544 18.72 95.6344 18.265 95.9444 17.895C96.2644 17.525 96.6594 17.245 97.1294 17.055C97.5994 16.855 98.0994 16.755 98.6294 16.755C99.6694 16.755 100.449 17.035 100.969 17.595C101.499 18.145 101.764 18.88 101.764 19.8V24.375H100.639L100.564 23.04C100.354 23.46 100.044 23.82 99.6344 24.12C99.2344 24.41 98.6944 24.555 98.0144 24.555ZM98.2094 23.49C98.6894 23.49 99.0994 23.365 99.4394 23.115C99.7894 22.865 100.054 22.54 100.234 22.14C100.414 21.74 100.504 21.32 100.504 20.88V20.865H98.5994C97.8594 20.865 97.3344 20.995 97.0244 21.255C96.7244 21.505 96.5744 21.82 96.5744 22.2C96.5744 22.59 96.7144 22.905 96.9944 23.145C97.2844 23.375 97.6894 23.49 98.2094 23.49ZM106.39 24.375C105.71 24.375 105.175 24.21 104.785 23.88C104.395 23.55 104.2 22.955 104.2 22.095V18H102.91V16.935H104.2L104.365 15.15H105.46V16.935H107.65V18H105.46V22.095C105.46 22.565 105.555 22.885 105.745 23.055C105.935 23.215 106.27 23.295 106.75 23.295H107.53V24.375H106.39ZM110.015 15.285C109.765 15.285 109.555 15.205 109.385 15.045C109.225 14.875 109.145 14.665 109.145 14.415C109.145 14.175 109.225 13.975 109.385 13.815C109.555 13.655 109.765 13.575 110.015 13.575C110.255 13.575 110.46 13.655 110.63 13.815C110.8 13.975 110.885 14.175 110.885 14.415C110.885 14.665 110.8 14.875 110.63 15.045C110.46 15.205 110.255 15.285 110.015 15.285ZM109.385 24.375V16.935H110.645V24.375H109.385ZM116.259 24.555C115.549 24.555 114.909 24.395 114.339 24.075C113.779 23.745 113.334 23.29 113.004 22.71C112.684 22.12 112.524 21.435 112.524 20.655C112.524 19.875 112.684 19.195 113.004 18.615C113.334 18.025 113.779 17.57 114.339 17.25C114.909 16.92 115.549 16.755 116.259 16.755C117.139 16.755 117.879 16.985 118.479 17.445C119.089 17.905 119.474 18.52 119.634 19.29H118.344C118.244 18.83 117.999 18.475 117.609 18.225C117.219 17.965 116.764 17.835 116.244 17.835C115.824 17.835 115.429 17.94 115.059 18.15C114.689 18.36 114.389 18.675 114.159 19.095C113.929 19.515 113.814 20.035 113.814 20.655C113.814 21.275 113.929 21.795 114.159 22.215C114.389 22.635 114.689 22.955 115.059 23.175C115.429 23.385 115.824 23.49 116.244 23.49C116.764 23.49 117.219 23.365 117.609 23.115C117.999 22.855 118.244 22.49 118.344 22.02H119.634C119.484 22.77 119.104 23.38 118.494 23.85C117.884 24.32 117.139 24.555 116.259 24.555Z" fill="#405FF2"/>
</svg>
