<svg width="18" height="18" viewBox="0 0 18 18" fill="none" xmlns="http://www.w3.org/2000/svg">
<rect width="18" height="18" fill="#F5F5F5"/>
<g id="details v1">
<rect width="1920" height="7036.19" transform="translate(-260 -1055)" fill="white"/>
<rect width="1920" height="7036.19" transform="translate(-260 -1055)" fill="white"/>
<g id="Section &#226;&#134;&#146; Main">
<g id="List">
<g id="Item" clip-path="url(#clip0_8_42)">
<g id="Icon">
<path id="Vector" d="M15.7801 7.31989H16.3201C16.4801 7.31989 16.6101 7.25989 16.7101 7.13989C16.8101 7.01989 16.8601 6.88989 16.8601 6.74989C16.8601 6.60989 16.8101 6.47989 16.7101 6.35989C16.6101 6.23989 16.4801 6.17989 16.3201 6.17989H14.9401L14.1001 4.73989C13.8201 4.29989 13.4701 3.95989 13.0501 3.71989C12.6301 3.47989 12.1601 3.35989 11.6401 3.35989H6.36014C5.84014 3.35989 5.37014 3.47989 4.95014 3.71989C4.53014 3.95989 4.18014 4.29989 3.90014 4.73989L3.06014 6.17989H1.68014C1.52014 6.17989 1.39014 6.23989 1.29014 6.35989C1.19014 6.47989 1.14014 6.60989 1.14014 6.74989C1.14014 6.88989 1.19014 7.01989 1.29014 7.13989C1.39014 7.25989 1.52014 7.31989 1.68014 7.31989H2.28014L1.92014 7.73989C1.40014 8.45989 1.14014 9.25989 1.14014 10.1399V12.9599C1.14014 13.3999 1.30014 13.7899 1.62014 14.1299C1.94014 14.4699 2.34014 14.6399 2.82014 14.6399H3.96014C4.40014 14.6399 4.79014 14.4699 5.13014 14.1299C5.47014 13.7899 5.64014 13.3999 5.64014 12.9599H12.3601C12.3601 13.3999 12.5301 13.7899 12.8701 14.1299C13.2101 14.4699 13.6001 14.6399 14.0401 14.6399H15.1801C15.6601 14.6399 16.0601 14.4699 16.3801 14.1299C16.7001 13.7899 16.8601 13.3999 16.8601 12.9599V10.1399C16.8601 9.25989 16.6001 8.45989 16.0801 7.73989L15.7801 7.31989ZM4.86014 5.33989C5.02014 5.05989 5.23014 4.84989 5.49014 4.70989C5.75014 4.56989 6.04014 4.49989 6.36014 4.49989H11.6401C11.9601 4.49989 12.2501 4.56989 12.5101 4.70989C12.7701 4.84989 12.9801 5.05989 13.1401 5.33989L13.8601 6.59989L13.5001 6.83989C13.0201 7.15989 12.5001 7.31989 11.9401 7.31989H6.06014C5.50014 7.31989 4.98014 7.15989 4.50014 6.83989L4.14014 6.59989L4.86014 5.33989ZM15.7801 12.9599C15.7801 13.0799 15.7201 13.1999 15.6001 13.3199C15.4801 13.4399 15.3401 13.4999 15.1801 13.4999H14.0401C13.9201 13.4999 13.8001 13.4399 13.6801 13.3199C13.5601 13.1999 13.5001 13.0799 13.5001 12.9599V12.3599C13.5001 12.1999 13.4501 12.0699 13.3501 11.9699C13.2501 11.8699 13.1201 11.8199 12.9601 11.8199H5.04014C4.88014 11.8199 4.75014 11.8699 4.65014 11.9699C4.55014 12.0699 4.50014 12.1999 4.50014 12.3599V12.9599C4.50014 13.0799 4.44014 13.1999 4.32014 13.3199C4.20014 13.4399 4.08014 13.4999 3.96014 13.4999H2.82014C2.66014 13.4999 2.52014 13.4399 2.40014 13.3199C2.28014 13.1999 2.22014 13.0799 2.22014 12.9599V10.1399C2.26014 9.49989 2.46014 8.93989 2.82014 8.45989L3.48014 7.49989L3.90014 7.79989C4.58014 8.23989 5.30014 8.45989 6.06014 8.45989H11.9401C12.7001 8.45989 13.4201 8.23989 14.1001 7.79989L14.5201 7.49989L15.1801 8.45989C15.5401 8.93989 15.7201 9.49989 15.7201 10.1399V12.9599H15.7801ZM13.5001 10.1399C13.5001 10.2999 13.5501 10.4299 13.6501 10.5299C13.7501 10.6299 13.8801 10.6799 14.0401 10.6799C14.2001 10.6799 14.3401 10.6299 14.4601 10.5299C14.5801 10.4299 14.6401 10.2999 14.6401 10.1399C14.6401 9.97989 14.5801 9.83989 14.4601 9.71989C14.3401 9.59989 14.2001 9.53989 14.0401 9.53989C13.8801 9.53989 13.7501 9.59989 13.6501 9.71989C13.5501 9.83989 13.5001 9.97989 13.5001 10.1399ZM3.36014 10.1399C3.36014 10.2999 3.42014 10.4299 3.54014 10.5299C3.66014 10.6299 3.80014 10.6799 3.96014 10.6799C4.12014 10.6799 4.25014 10.6299 4.35014 10.5299C4.45014 10.4299 4.50014 10.2999 4.50014 10.1399C4.50014 9.97989 4.45014 9.83989 4.35014 9.71989C4.25014 9.59989 4.12014 9.53989 3.96014 9.53989C3.80014 9.53989 3.66014 9.59989 3.54014 9.71989C3.42014 9.83989 3.36014 9.97989 3.36014 10.1399Z" fill="#050B20"/>
</g>
</g>
</g>
</g>
</g>
<defs>
<clipPath id="clip0_8_42">
<rect width="455.5" height="27.75" fill="white"/>
</clipPath>
</defs>
</svg>
