<svg width="25" height="25" viewBox="0 0 25 25" fill="none" xmlns="http://www.w3.org/2000/svg">
<rect width="25" height="25" fill="#F5F5F5"/>
<g id="shop page">
<rect width="1920" height="2984.44" transform="translate(-722 -770)" fill="white"/>
<rect width="1920" height="2984.44" transform="translate(-722 -770)" fill="white"/>
<g id="Section">
<g id="Main">
<g id="Background+Border">
<rect x="-104" y="-435.25" width="326.48" height="508.52" rx="15.5" fill="white"/>
<rect x="-104" y="-435.25" width="326.48" height="508.52" rx="15.5" stroke="#E9E9E9"/>
<g id="Link">
<rect x="-73" y="-13.48" width="264.48" height="55.75" rx="7.5" fill="white"/>
<rect x="-73" y="-13.48" width="264.48" height="55.75" rx="7.5" stroke="#405FF2"/>
<g id="SVG">
<path id="Vector" fill-rule="evenodd" clip-rule="evenodd" d="M17.6475 12.0637H14.8755C14.4605 12.0637 14.1255 11.7277 14.1255 11.3137C14.1255 10.8997 14.4605 10.5637 14.8755 10.5637H17.6475C18.0615 10.5637 18.3975 10.8997 18.3975 11.3137C18.3975 11.7277 18.0615 12.0637 17.6475 12.0637Z" fill="#405FF2"/>
<path id="Vector_2" fill-rule="evenodd" clip-rule="evenodd" d="M7.90338 21.0609C7.79038 21.0609 7.69838 21.1529 7.69838 21.2659C7.69838 21.4929 8.10938 21.4929 8.10938 21.2659C8.10938 21.1529 8.01638 21.0609 7.90338 21.0609ZM7.90338 22.5609C7.18938 22.5609 6.60938 21.9799 6.60938 21.2659C6.60938 20.5519 7.18938 19.9719 7.90338 19.9719C8.61738 19.9719 9.19837 20.5519 9.19837 21.2659C9.19837 21.9799 8.61738 22.5609 7.90338 22.5609Z" fill="#405FF2"/>
<path id="Vector_3" fill-rule="evenodd" clip-rule="evenodd" d="M19.1836 21.0609C19.0716 21.0609 18.9796 21.1529 18.9796 21.2659C18.9806 21.4949 19.3906 21.4929 19.3896 21.2659C19.3896 21.1529 19.2966 21.0609 19.1836 21.0609ZM19.1836 22.5609C18.4696 22.5609 17.8896 21.9799 17.8896 21.2659C17.8896 20.5519 18.4696 19.9719 19.1836 19.9719C19.8986 19.9719 20.4796 20.5519 20.4796 21.2659C20.4796 21.9799 19.8986 22.5609 19.1836 22.5609Z" fill="#405FF2"/>
<path id="Vector_4" fill-rule="evenodd" clip-rule="evenodd" d="M6.68746 8.36751L7.29046 15.5395C7.33446 16.0915 7.78546 16.5055 8.33646 16.5055H19.2535C19.7745 16.5055 20.2195 16.1175 20.2935 15.6025L21.2435 9.04351C21.2655 8.88751 21.2265 8.73151 21.1315 8.60551C21.0375 8.47851 20.8995 8.39651 20.7435 8.37451C20.5345 8.38251 11.8615 8.37051 6.68746 8.36751ZM8.33446 18.0055C7.01746 18.0055 5.90246 16.9775 5.79546 15.6625L4.87946 4.76851L3.37246 4.50851C2.96346 4.43651 2.69046 4.04951 2.76046 3.64051C2.83246 3.23151 3.22746 2.96551 3.62746 3.02951L5.70746 3.38951C6.04246 3.44851 6.29746 3.72651 6.32646 4.06651L6.56146 6.86751C20.8375 6.87351 20.8835 6.88051 20.9525 6.88851C21.5095 6.96951 21.9995 7.26051 22.3335 7.70851C22.6675 8.15551 22.8075 8.70651 22.7275 9.25851L21.7785 15.8165C21.5995 17.0645 20.5155 18.0055 19.2555 18.0055H8.33446Z" fill="#405FF2"/>
</g>
</g>
</g>
</g>
</g>
</g>
</svg>
