<svg width="19" height="18" viewBox="0 0 19 18" fill="none" xmlns="http://www.w3.org/2000/svg">
<rect width="19" height="18" fill="#F5F5F5"/>
<g id="details v1">
<rect width="1920" height="7036.19" transform="translate(-735 -1254)" fill="white"/>
<rect width="1920" height="7036.19" transform="translate(-735 -1254)" fill="white"/>
<g id="Section &#226;&#134;&#146; Main">
<g id="List">
<g id="Item" clip-path="url(#clip0_8_42)">
<g id="Icon" clip-path="url(#clip1_8_42)">
<path id="Vector" d="M17.66 8.4L11.96 2.7L13.46 1.2C13.58 1.08 13.64 0.92 13.64 0.720001C13.64 0.52 13.57 0.35 13.43 0.210001C13.29 0.0699997 13.13 0 12.95 0C12.77 0 12.6 0.0599995 12.44 0.18L3.98 8.7C3.38 8.86 2.88 9.19 2.48 9.69C2.08 10.19 1.88 10.76 1.88 11.4C1.88 11.6 1.95 11.77 2.09 11.91C2.23 12.05 2.4 12.12 2.6 12.12C2.8 12.12 2.97 12.05 3.11 11.91C3.25 11.77 3.32 11.58 3.32 11.34C3.32 11.1 3.39 10.87 3.53 10.65C3.67 10.43 3.86 10.26 4.1 10.14L10.04 16.08C10.56 16.6 11.21 16.86 11.99 16.86C12.77 16.86 13.44 16.6 14 16.08L17.66 12.42C18.22 11.86 18.5 11.19 18.5 10.41C18.5 9.63 18.22 8.96 17.66 8.4ZM16.7 11.4L12.98 15.06C12.74 15.34 12.42 15.48 12.02 15.48C11.62 15.48 11.28 15.34 11 15.06L5.9 9.96H13.7C13.9 9.96 14.07 9.9 14.21 9.78C14.35 9.66 14.42 9.5 14.42 9.3C14.42 9.1 14.35 8.93 14.21 8.79C14.07 8.65 13.9 8.58 13.7 8.58H6.08L10.94 3.72L16.7 9.42C16.98 9.7 17.12 10.03 17.12 10.41C17.12 10.79 16.98 11.12 16.7 11.4ZM3.86 14.04C3.62 13.68 3.38 13.36 3.14 13.08C2.98 12.88 2.79 12.78 2.57 12.78C2.35 12.78 2.18 12.88 2.06 13.08C1.78 13.36 1.52 13.68 1.28 14.04C0.76 14.84 0.5 15.46 0.5 15.9C0.5 16.5 0.7 17 1.1 17.4C1.5 17.8 1.99 18 2.57 18C3.15 18 3.64 17.8 4.04 17.4C4.44 17 4.64 16.5 4.64 15.9C4.64 15.46 4.38 14.84 3.86 14.04ZM2.6 16.62C2.4 16.62 2.23 16.55 2.09 16.41C1.95 16.27 1.89 16.11 1.91 15.93C1.93 15.75 2.12 15.38 2.48 14.82L2.6 14.7L2.66 14.82C3.02 15.38 3.21 15.75 3.23 15.93C3.25 16.11 3.19 16.27 3.05 16.41C2.91 16.55 2.76 16.62 2.6 16.62Z" fill="#050B20"/>
</g>
</g>
</g>
</g>
</g>
<defs>
<clipPath id="clip0_8_42">
<rect width="455.5" height="27.75" fill="white" transform="translate(0.5)"/>
</clipPath>
<clipPath id="clip1_8_42">
<rect width="18" height="18" fill="white" transform="matrix(1 0 0 -1 0.5 18)"/>
</clipPath>
</defs>
</svg>
