<svg width="12" height="13" viewBox="0 0 12 13" fill="none" xmlns="http://www.w3.org/2000/svg">
<rect width="12" height="13" fill="#F5F5F5"/>
<g id="details v1">
<rect width="1920" height="7036.19" transform="translate(-1636 -260)" fill="white"/>
<rect width="1920" height="7036.19" transform="translate(-1636 -260)" fill="white"/>
<g id="Section &#226;&#134;&#146; Main">
<g id="Link">
<g id="Background+Border">
<rect x="-11.5" y="-11.25" width="35" height="35" rx="17.5" fill="white"/>
<rect x="-11.5" y="-11.25" width="35" height="35" rx="17.5" stroke="#E9E9E9"/>
<g id="Icon" clip-path="url(#clip0_8_42)">
<path id="Vector" d="M4.39995 5.85C4.29328 5.85 4.19995 5.81 4.11995 5.73C4.03995 5.65 3.99995 5.55667 3.99995 5.45V4.25C3.97328 4.09 4.03328 3.96333 4.17995 3.87C4.32662 3.77667 4.47328 3.77667 4.61995 3.87C4.76662 3.96333 4.82662 4.09 4.79995 4.25V5.45C4.79995 5.55667 4.75995 5.65 4.67995 5.73C4.59995 5.81 4.50662 5.85 4.39995 5.85ZM5.99995 5.85C5.89328 5.85 5.79995 5.81 5.71995 5.73C5.63995 5.65 5.59995 5.55667 5.59995 5.45V3.85C5.59995 3.74333 5.63995 3.65667 5.71995 3.59C5.79995 3.52333 5.89328 3.49 5.99995 3.49C6.10662 3.49 6.19995 3.52333 6.27995 3.59C6.35995 3.65667 6.39995 3.74333 6.39995 3.85V5.45C6.39995 5.55667 6.35995 5.65 6.27995 5.73C6.19995 5.81 6.10662 5.85 5.99995 5.85ZM7.59995 5.85C7.49328 5.85 7.39995 5.81 7.31995 5.73C7.23995 5.65 7.19995 5.55667 7.19995 5.45V3.05C7.17328 2.89 7.23328 2.76333 7.37995 2.67C7.52662 2.57667 7.67328 2.57667 7.81995 2.67C7.96662 2.76333 8.02662 2.89 7.99995 3.05V5.45C7.99995 5.55667 7.95995 5.65 7.87995 5.73C7.79995 5.81 7.70662 5.85 7.59995 5.85ZM9.19995 12.25H2.79995C2.34662 12.25 1.96662 12.0967 1.65995 11.79C1.35328 11.4833 1.19995 11.1033 1.19995 10.65V3.41C1.19995 3.11667 1.25995 2.83 1.37995 2.55C1.49995 2.27 1.67995 2.03667 1.91995 1.85L3.31995 0.73C3.66662 0.41 4.07995 0.25 4.55995 0.25H9.19995C9.65328 0.25 10.0333 0.403334 10.34 0.71C10.6466 1.01667 10.8 1.39667 10.8 1.85V10.65C10.8 11.1033 10.6466 11.4833 10.34 11.79C10.0333 12.0967 9.65328 12.25 9.19995 12.25ZM4.55995 1.05C4.29328 1.05 4.05328 1.14333 3.83995 1.33L2.43995 2.49C2.14662 2.73 1.99995 3.03667 1.99995 3.41V10.65C1.99995 10.8633 2.07995 11.05 2.23995 11.21C2.39995 11.37 2.58662 11.45 2.79995 11.45H9.19995C9.41328 11.45 9.59995 11.37 9.75995 11.21C9.91995 11.05 9.99995 10.8633 9.99995 10.65V1.85C9.99995 1.63667 9.91995 1.45 9.75995 1.29C9.59995 1.13 9.41328 1.05 9.19995 1.05H4.55995ZM8.39995 9.85H3.59995C3.43995 9.87667 3.31328 9.81667 3.21995 9.67C3.12662 9.52333 3.12662 9.37667 3.21995 9.23C3.31328 9.08333 3.43995 9.02333 3.59995 9.05H8.39995C8.55995 9.02333 8.68662 9.08333 8.77995 9.23C8.87328 9.37667 8.87328 9.52333 8.77995 9.67C8.68662 9.81667 8.55995 9.87667 8.39995 9.85ZM8.39995 7.85H3.59995C3.49328 7.85 3.40662 7.81 3.33995 7.73C3.27328 7.65 3.23995 7.55667 3.23995 7.45C3.23995 7.34333 3.27328 7.25 3.33995 7.17C3.40662 7.09 3.49328 7.05 3.59995 7.05H8.39995C8.55995 7.02333 8.68662 7.08333 8.77995 7.23C8.87328 7.37667 8.87328 7.52333 8.77995 7.67C8.68662 7.81667 8.55995 7.87667 8.39995 7.85Z" fill="#050B20"/>
</g>
</g>
</g>
</g>
</g>
<defs>
<clipPath id="clip0_8_42">
<rect width="12" height="12" fill="white" transform="matrix(1 0 0 -1 0 12.25)"/>
</clipPath>
</defs>
</svg>
