<svg width="19" height="19" viewBox="0 0 19 19" fill="none" xmlns="http://www.w3.org/2000/svg">
<rect width="19" height="19" fill="#F5F5F5"/>
<g id="details v1">
<rect width="1920" height="7036.19" transform="translate(-735 -1204)" fill="white"/>
<rect width="1920" height="7036.19" transform="translate(-735 -1204)" fill="white"/>
<g id="Section &#226;&#134;&#146; Main">
<g id="List">
<g id="Item" clip-path="url(#clip0_8_42)">
<g id="Icon" clip-path="url(#clip1_8_42)">
<path id="Vector" d="M3.08 13.45C2.76 13.77 2.6 14.14 2.6 14.56C2.6 14.98 2.76 15.35 3.08 15.67C3.4 15.99 3.77 16.15 4.19 16.15C4.61 16.15 4.98 15.99 5.3 15.67C5.62 15.35 5.78 14.98 5.78 14.56C5.78 14.14 5.62 13.77 5.3 13.45C4.98 13.13 4.61 12.97 4.19 12.97C3.77 12.97 3.4 13.13 3.08 13.45ZM4.58 14.95C4.46 15.03 4.33 15.07 4.19 15.07C4.05 15.07 3.93 15.02 3.83 14.92C3.73 14.82 3.68 14.7 3.68 14.56C3.68 14.42 3.73 14.3 3.83 14.2C3.93 14.1 4.05 14.05 4.19 14.05C4.33 14.05 4.45 14.1 4.55 14.2C4.65 14.3 4.7 14.42 4.7 14.56C4.7 14.7 4.66 14.83 4.58 14.95ZM18.02 4.99L13.76 0.73C13.44 0.41 13.06 0.25 12.62 0.25C12.18 0.25 11.8 0.41 11.48 0.73L6.98 5.17L7.64 5.89C8.52 5.85 9.34 6.03 10.1 6.43L5.42 11.11C4.78 10.87 4.11 10.82 3.41 10.96C2.71 11.1 2.11 11.42 1.61 11.92C1.11 12.42 0.78 12.98 0.62 13.6C0.46 14.22 0.46 14.85 0.62 15.49C0.78 16.13 1.1 16.69 1.58 17.17C1.94 17.53 2.34 17.8 2.78 17.98C3.22 18.16 3.69 18.25 4.19 18.25C4.69 18.25 5.16 18.16 5.6 17.98C6.04 17.8 6.44 17.53 6.8 17.17C7.32 16.65 7.65 16.04 7.79 15.34C7.93 14.64 7.88 13.97 7.64 13.33L12.32 8.65C12.72 9.41 12.9 10.23 12.86 11.11L13.58 11.77L18.02 7.27C18.34 6.99 18.5 6.62 18.5 6.16C18.5 5.7 18.34 5.31 18.02 4.99ZM6.08 16.45C5.56 16.93 4.93 17.17 4.19 17.17C3.45 17.17 2.83 16.92 2.33 16.42C1.83 15.92 1.58 15.3 1.58 14.56C1.58 13.82 1.83 13.2 2.33 12.7C2.83 12.2 3.45 11.95 4.19 11.95C4.93 11.95 5.55 12.2 6.05 12.7C6.55 13.2 6.8 13.82 6.8 14.56C6.8 15.3 6.56 15.93 6.08 16.45ZM7.16 12.37C7.04 12.21 6.92 12.07 6.8 11.95C6.68 11.83 6.54 11.71 6.38 11.59L11 7.03C11.28 7.27 11.52 7.51 11.72 7.75L7.16 12.37ZM12.14 6.61C11.18 5.69 10.06 5.13 8.78 4.93L11 2.71L16.04 7.75L13.82 9.97C13.62 8.69 13.06 7.57 12.14 6.61ZM17.3 6.55L16.82 7.03L11.72 1.93L12.2 1.45C12.32 1.37 12.46 1.33 12.62 1.33C12.78 1.33 12.9 1.37 12.98 1.45L17.3 5.77C17.38 5.85 17.42 5.97 17.42 6.13C17.42 6.29 17.38 6.43 17.3 6.55Z" fill="#050B20"/>
</g>
</g>
</g>
</g>
</g>
<defs>
<clipPath id="clip0_8_42">
<rect width="455.5" height="27.75" fill="white" transform="translate(0.5 0.25)"/>
</clipPath>
<clipPath id="clip1_8_42">
<rect width="18" height="18" fill="white" transform="matrix(1 0 0 -1 0.5 18.25)"/>
</clipPath>
</defs>
</svg>
