<svg width="18" height="19" viewBox="0 0 18 19" fill="none" xmlns="http://www.w3.org/2000/svg">
<rect width="18" height="19" fill="#F5F5F5"/>
<g id="details v1">
<rect width="1920" height="7036.19" transform="translate(-260 -1204)" fill="white"/>
<rect width="1920" height="7036.19" transform="translate(-260 -1204)" fill="white"/>
<g id="Section &#226;&#134;&#146; Main">
<g id="List">
<g id="Item" clip-path="url(#clip0_8_42)">
<g id="Icon" clip-path="url(#clip1_8_42)">
<path id="Vector" d="M14.52 1.63H13.86V0.970001C13.86 0.77 13.79 0.6 13.65 0.460001C13.51 0.32 13.34 0.25 13.14 0.25C12.94 0.25 12.77 0.32 12.63 0.460001C12.49 0.6 12.42 0.77 12.42 0.970001V1.63H5.58V0.970001C5.58 0.77 5.51 0.6 5.37 0.460001C5.23 0.32 5.06 0.25 4.86 0.25C4.66 0.25 4.49 0.32 4.35 0.460001C4.21 0.6 4.14 0.77 4.14 0.970001V1.63H3.48C2.84 1.63 2.26 1.79 1.74 2.11C1.22 2.43 0.8 2.85 0.48 3.37C0.16 3.89 0 4.47 0 5.11V14.77C0 15.41 0.16 15.99 0.48 16.51C0.8 17.03 1.22 17.45 1.74 17.77C2.26 18.09 2.84 18.25 3.48 18.25H14.52C15.16 18.25 15.74 18.09 16.26 17.77C16.78 17.45 17.2 17.03 17.52 16.51C17.84 15.99 18 15.41 18 14.77V5.11C18 4.47 17.84 3.89 17.52 3.37C17.2 2.85 16.78 2.43 16.26 2.11C15.74 1.79 15.16 1.63 14.52 1.63ZM3.48 3.07H4.14V4.39C4.14 4.59 4.21 4.76 4.35 4.9C4.49 5.04 4.66 5.11 4.86 5.11C5.06 5.11 5.23 5.04 5.37 4.9C5.51 4.76 5.58 4.59 5.58 4.39V3.07H12.42V4.39C12.42 4.59 12.49 4.76 12.63 4.9C12.77 5.04 12.94 5.11 13.14 5.11C13.34 5.11 13.51 5.04 13.65 4.9C13.79 4.76 13.86 4.59 13.86 4.39V3.07H14.52C15.08 3.07 15.57 3.27 15.99 3.67C16.41 4.07 16.62 4.55 16.62 5.11V5.77H1.38V5.11C1.38 4.55 1.59 4.07 2.01 3.67C2.43 3.27 2.92 3.07 3.48 3.07ZM14.52 16.87H3.48C2.92 16.87 2.43 16.66 2.01 16.24C1.59 15.82 1.38 15.33 1.38 14.77V7.21H16.62V14.77C16.62 15.33 16.41 15.82 15.99 16.24C15.57 16.66 15.08 16.87 14.52 16.87ZM6.24 9.97C6.24 10.17 6.17 10.33 6.03 10.45C5.89 10.57 5.72 10.63 5.52 10.63H4.14C3.94 10.63 3.78 10.57 3.66 10.45C3.54 10.33 3.48 10.17 3.48 9.97C3.48 9.77 3.54 9.6 3.66 9.46C3.78 9.32 3.94 9.25 4.14 9.25H5.52C5.72 9.25 5.89 9.32 6.03 9.46C6.17 9.6 6.24 9.77 6.24 9.97ZM14.52 9.97C14.52 10.17 14.46 10.33 14.34 10.45C14.22 10.57 14.06 10.63 13.86 10.63H12.48C12.28 10.63 12.11 10.57 11.97 10.45C11.83 10.33 11.76 10.17 11.76 9.97C11.76 9.77 11.83 9.6 11.97 9.46C12.11 9.32 12.28 9.25 12.48 9.25H13.86C14.06 9.25 14.22 9.32 14.34 9.46C14.46 9.6 14.52 9.77 14.52 9.97ZM10.38 9.97C10.38 10.17 10.31 10.33 10.17 10.45C10.03 10.57 9.86 10.63 9.66 10.63H8.28C8.12 10.63 7.97 10.57 7.83 10.45C7.69 10.33 7.62 10.17 7.62 9.97C7.62 9.77 7.69 9.6 7.83 9.46C7.97 9.32 8.12 9.25 8.28 9.25H9.66C9.86 9.25 10.03 9.32 10.17 9.46C10.31 9.6 10.38 9.77 10.38 9.97ZM6.24 14.11C6.24 14.31 6.17 14.48 6.03 14.62C5.89 14.76 5.72 14.83 5.52 14.83H4.14C3.94 14.83 3.78 14.76 3.66 14.62C3.54 14.48 3.48 14.31 3.48 14.11C3.48 13.91 3.54 13.74 3.66 13.6C3.78 13.46 3.94 13.39 4.14 13.39H5.52C5.72 13.39 5.89 13.46 6.03 13.6C6.17 13.74 6.24 13.91 6.24 14.11ZM14.52 14.11C14.52 14.31 14.46 14.48 14.34 14.62C14.22 14.76 14.06 14.83 13.86 14.83H12.48C12.28 14.83 12.11 14.76 11.97 14.62C11.83 14.48 11.76 14.31 11.76 14.11C11.76 13.91 11.83 13.74 11.97 13.6C12.11 13.46 12.28 13.39 12.48 13.39H13.86C14.06 13.39 14.22 13.46 14.34 13.6C14.46 13.74 14.52 13.91 14.52 14.11ZM10.38 14.11C10.38 14.31 10.31 14.48 10.17 14.62C10.03 14.76 9.86 14.83 9.66 14.83H8.28C8.12 14.83 7.97 14.76 7.83 14.62C7.69 14.48 7.62 14.31 7.62 14.11C7.62 13.91 7.69 13.74 7.83 13.6C7.97 13.46 8.12 13.39 8.28 13.39H9.66C9.86 13.39 10.03 13.46 10.17 13.6C10.31 13.74 10.38 13.91 10.38 14.11Z" fill="#050B20"/>
</g>
</g>
</g>
</g>
</g>
<defs>
<clipPath id="clip0_8_42">
<rect width="455.5" height="27.75" fill="white" transform="translate(0 0.25)"/>
</clipPath>
<clipPath id="clip1_8_42">
<rect width="18" height="18" fill="white" transform="matrix(1 0 0 -1 0 18.25)"/>
</clipPath>
</defs>
</svg>
