<svg width="15" height="15" viewBox="0 0 15 15" fill="none" xmlns="http://www.w3.org/2000/svg">
<rect width="15" height="15" fill="#F5F5F5"/>
<g id="details v1">
<rect width="1920" height="7036.19" transform="translate(-397 -3960)" fill="white"/>
<rect width="1920" height="7036.19" transform="translate(-397 -3960)" fill="white"/>
<g id="Section &#226;&#134;&#146; Main">
<g id="Button">
<rect x="-136.5" y="-20.2" width="209" height="54.75" rx="15.5" fill="#405FF2"/>
<rect x="-136.5" y="-20.2" width="209" height="54.75" rx="15.5" stroke="#405FF2"/>
<g id="SVG">
<path id="Vector" d="M13.8309 0.52002H5.2753C5.06034 0.52002 4.8864 0.693963 4.8864 0.908921C4.8864 1.12388 5.06034 1.29782 5.2753 1.29782H12.8921L0.333668 13.8562C0.181746 14.0081 0.181746 14.2542 0.333668 14.4061C0.409611 14.482 0.509142 14.52 0.608637 14.52C0.708132 14.52 0.807627 14.482 0.883606 14.4061L13.442 1.84772V9.46449C13.442 9.67945 13.6159 9.85339 13.8309 9.85339C14.0459 9.85339 14.2198 9.67945 14.2198 9.46449V0.908921C14.2198 0.693963 14.0458 0.52002 13.8309 0.52002Z" fill="white"/>
</g>
</g>
</g>
</g>
</svg>
