<svg width="15" height="15" viewBox="0 0 15 15" fill="none" xmlns="http://www.w3.org/2000/svg">
<rect width="15" height="15" fill="#F5F5F5"/>
<g id="details v1">
<rect width="1920" height="7036.19" transform="translate(-1553 -1407)" fill="white"/>
<rect width="1920" height="7036.19" transform="translate(-1553 -1407)" fill="white"/>
<g id="Section &#226;&#134;&#146; Main">
<g id="Border">
<rect x="-291.5" y="-409.5" width="398" height="461" rx="15.5" stroke="#E9E9E9"/>
<g id="Link">
<g id="SVG">
<path id="Vector" d="M14.501 0.469971H5.94547C5.73051 0.469971 5.55657 0.643914 5.55657 0.858872C5.55657 1.07383 5.73051 1.24777 5.94547 1.24777H13.5622L1.00383 13.8062C0.851912 13.9581 0.851912 14.2042 1.00383 14.3561C1.07978 14.432 1.17931 14.47 1.2788 14.47C1.3783 14.47 1.47779 14.432 1.55377 14.3561L14.1121 1.79767V9.41444C14.1121 9.6294 14.286 9.80334 14.501 9.80334C14.716 9.80334 14.8899 9.6294 14.8899 9.41444V0.858872C14.8899 0.643914 14.7159 0.469971 14.501 0.469971Z" fill="#050B20"/>
</g>
</g>
</g>
</g>
</g>
</svg>
