<svg width="15" height="15" viewBox="0 0 15 15" fill="none" xmlns="http://www.w3.org/2000/svg">
<rect width="15" height="15" fill="#F5F5F5"/>
<g id="details v1">
<rect width="1920" height="7036.19" transform="translate(-1528 -1350)" fill="white"/>
<rect width="1920" height="7036.19" transform="translate(-1528 -1350)" fill="white"/>
<g id="Section &#226;&#134;&#146; Main">
<g id="Border">
<rect x="-266.5" y="-352.5" width="398" height="461" rx="15.5" stroke="#E9E9E9"/>
<g id="Link">
<rect x="-235.5" y="-20" width="336" height="54.75" rx="15.5" fill="white"/>
<rect x="-235.5" y="-20" width="336" height="54.75" rx="15.5" stroke="#60C961"/>
<g id="SVG">
<path id="Vector" d="M14.4908 0.719971H5.93521C5.72025 0.719971 5.54631 0.893914 5.54631 1.10887C5.54631 1.32383 5.72025 1.49777 5.93521 1.49777H13.552L0.99358 14.0562C0.841658 14.2081 0.841658 14.4542 0.99358 14.6061C1.06952 14.682 1.16905 14.72 1.26855 14.72C1.36804 14.72 1.46754 14.682 1.54352 14.6061L14.1019 2.04767V9.66444C14.1019 9.8794 14.2758 10.0533 14.4908 10.0533C14.7058 10.0533 14.8797 9.8794 14.8797 9.66444V1.10887C14.8797 0.893914 14.7057 0.719971 14.4908 0.719971Z" fill="#60C961"/>
</g>
</g>
</g>
</g>
</g>
</svg>
