<svg width="22" height="23" viewBox="0 0 22 23" fill="none" xmlns="http://www.w3.org/2000/svg">
<rect width="22" height="23" fill="#F5F5F5"/>
<g id="details v1">
<rect width="1920" height="7036.19" transform="translate(-300 -1683)" fill="white"/>
<rect width="1920" height="7036.19" transform="translate(-300 -1683)" fill="white"/>
<g id="Section &#226;&#134;&#146; Main">
<g id="Link">
<rect x="-40" y="-13.75" width="286.47" height="53.75" rx="12" fill="#405FF2" fill-opacity="0.1"/>
<g id="Icon" clip-path="url(#clip0_8_42)">
<path id="Vector" d="M8.06686 10.7366C7.87131 10.7366 7.7002 10.6633 7.55353 10.5166C7.40686 10.37 7.33353 10.1989 7.33353 10.0033V7.8033C7.28464 7.50997 7.39464 7.27775 7.66353 7.10664C7.93242 6.93553 8.20131 6.93553 8.4702 7.10664C8.73908 7.27775 8.84908 7.50997 8.8002 7.8033V10.0033C8.8002 10.1989 8.72686 10.37 8.58019 10.5166C8.43353 10.6633 8.26242 10.7366 8.06686 10.7366ZM11.0002 10.7366C10.8046 10.7366 10.6335 10.6633 10.4869 10.5166C10.3402 10.37 10.2669 10.1989 10.2669 10.0033V7.06997C10.2669 6.87442 10.3402 6.71553 10.4869 6.5933C10.6335 6.47108 10.8046 6.40997 11.0002 6.40997C11.1958 6.40997 11.3669 6.47108 11.5135 6.5933C11.6602 6.71553 11.7335 6.87442 11.7335 7.06997V10.0033C11.7335 10.1989 11.6602 10.37 11.5135 10.5166C11.3669 10.6633 11.1958 10.7366 11.0002 10.7366ZM13.9335 10.7366C13.738 10.7366 13.5669 10.6633 13.4202 10.5166C13.2735 10.37 13.2002 10.1989 13.2002 10.0033V5.6033C13.1513 5.30997 13.2613 5.07775 13.5302 4.90664C13.7991 4.73553 14.068 4.73553 14.3369 4.90664C14.6058 5.07775 14.7158 5.30997 14.6669 5.6033V10.0033C14.6669 10.1989 14.5935 10.37 14.4469 10.5166C14.3002 10.6633 14.1291 10.7366 13.9335 10.7366ZM16.8669 22.47H5.13353C4.30242 22.47 3.60575 22.1889 3.04353 21.6266C2.48131 21.0644 2.2002 20.3677 2.2002 19.5366V6.2633C2.2002 5.72553 2.3102 5.19997 2.5302 4.68664C2.7502 4.17331 3.0802 3.74553 3.5202 3.40331L6.08686 1.34997C6.72242 0.763306 7.4802 0.469971 8.3602 0.469971H16.8669C17.698 0.469971 18.3946 0.751083 18.9569 1.3133C19.5191 1.87553 19.8002 2.57219 19.8002 3.40331V19.5366C19.8002 20.3677 19.5191 21.0644 18.9569 21.6266C18.3946 22.1889 17.698 22.47 16.8669 22.47ZM8.3602 1.93664C7.87131 1.93664 7.43131 2.10775 7.04019 2.44997L4.47353 4.57664C3.93575 5.01664 3.66686 5.57886 3.66686 6.2633V19.5366C3.66686 19.9277 3.81353 20.27 4.10686 20.5633C4.4002 20.8566 4.74242 21.0033 5.13353 21.0033H16.8669C17.258 21.0033 17.6002 20.8566 17.8935 20.5633C18.1869 20.27 18.3335 19.9277 18.3335 19.5366V3.40331C18.3335 3.01219 18.1869 2.66997 17.8935 2.37664C17.6002 2.08331 17.258 1.93664 16.8669 1.93664H8.3602ZM15.4002 18.07H6.60019C6.30686 18.1189 6.07464 18.0089 5.90353 17.74C5.73242 17.4711 5.73242 17.2022 5.90353 16.9333C6.07464 16.6644 6.30686 16.5544 6.60019 16.6033H15.4002C15.6935 16.5544 15.9258 16.6644 16.0969 16.9333C16.268 17.2022 16.268 17.4711 16.0969 17.74C15.9258 18.0089 15.6935 18.1189 15.4002 18.07ZM15.4002 14.4033H6.60019C6.40464 14.4033 6.24575 14.33 6.12353 14.1833C6.00131 14.0366 5.9402 13.8655 5.9402 13.67C5.9402 13.4744 6.00131 13.3033 6.12353 13.1566C6.24575 13.01 6.40464 12.9366 6.60019 12.9366H15.4002C15.6935 12.8877 15.9258 12.9977 16.0969 13.2666C16.268 13.5355 16.268 13.8044 16.0969 14.0733C15.9258 14.3422 15.6935 14.4522 15.4002 14.4033Z" fill="#405FF2"/>
</g>
</g>
</g>
</g>
<defs>
<clipPath id="clip0_8_42">
<rect width="22" height="22" fill="white" transform="matrix(1 0 0 -1 0 22.47)"/>
</clipPath>
</defs>
</svg>
