<svg width="19" height="19" viewBox="0 0 19 19" fill="none" xmlns="http://www.w3.org/2000/svg">
<g clip-path="url(#clip0_9_752)">
<path d="M18.02 7.76L11.24 0.98C10.92 0.66 10.54 0.5 10.1 0.5H2.06C1.62 0.5 1.25 0.65 0.95 0.950001C0.65 1.25 0.5 1.62 0.5 2.06V16.94C0.5 17.38 0.65 17.75 0.95 18.05C1.25 18.35 1.62 18.5 2.06 18.5H10.58C10.78 18.5 10.92 18.4 11 18.2C11.6 17 12.48 16.04 13.64 15.32C14.8 14.6 16.06 14.24 17.42 14.24H17.96C18.12 14.24 18.25 14.19 18.35 14.09C18.45 13.99 18.5 13.86 18.5 13.7V8.9C18.5 8.46 18.34 8.08 18.02 7.76ZM17.42 13.22C15.86 13.22 14.42 13.62 13.1 14.42C11.9 15.18 10.94 16.18 10.22 17.42H2.06C1.94 17.42 1.83 17.37 1.73 17.27C1.63 17.17 1.58 17.06 1.58 16.94V2.06C1.58 1.94 1.63 1.83 1.73 1.73C1.83 1.63 1.94 1.58 2.06 1.58H10.1C10.26 1.58 10.4 1.62 10.52 1.7L17.3 8.48C17.38 8.6 17.42 8.74 17.42 8.9V13.22ZM16.22 8.96L10.04 2.78C9.96 2.66 9.84 2.6 9.68 2.6H3.14C2.98 2.6 2.85 2.65 2.75 2.75C2.65 2.85 2.6 2.98 2.6 3.14V9.5C2.6 9.66 2.65 9.79 2.75 9.89C2.85 9.99 2.98 10.04 3.14 10.04H15.8C15.96 10.04 16.09 9.99 16.19 9.89C16.29 9.79 16.34 9.66 16.34 9.5V9.32C16.34 9.16 16.3 9.04 16.22 8.96ZM3.68 8.96V3.68H9.44L14.72 8.96H3.68ZM6.32 12.14H3.14C2.98 12.14 2.85 12.19 2.75 12.29C2.65 12.39 2.6 12.52 2.6 12.68V13.22C2.6 13.78 2.81 14.27 3.23 14.69C3.65 15.11 4.15 15.32 4.73 15.32C5.31 15.32 5.8 15.11 6.2 14.69C6.6 14.27 6.8 13.78 6.8 13.22V12.68C6.8 12.52 6.75 12.39 6.65 12.29C6.55 12.19 6.44 12.14 6.32 12.14ZM4.7 14.24C4.42 14.24 4.18 14.14 3.98 13.94C3.78 13.74 3.68 13.48 3.68 13.16H5.78C5.78 13.48 5.68 13.74 5.48 13.94C5.28 14.14 5.02 14.24 4.7 14.24Z" fill="#050B20"/>
</g>
<defs>
<clipPath id="clip0_9_752">
<rect width="18" height="18" fill="white" transform="matrix(1 0 0 -1 0.5 18.5)"/>
</clipPath>
</defs>
</svg>
