<svg width="18" height="19" viewBox="0 0 18 19" fill="none" xmlns="http://www.w3.org/2000/svg">
<rect width="18" height="19" fill="#F5F5F5"/>
<g id="details v1">
<rect width="1920" height="7036.19" transform="translate(-260 -1303)" fill="white"/>
<rect width="1920" height="7036.19" transform="translate(-260 -1303)" fill="white"/>
<g id="Section &#226;&#134;&#146; Main">
<g id="List">
<g id="Item" clip-path="url(#clip0_8_42)">
<g id="Icon" clip-path="url(#clip1_8_42)">
<path id="Vector" d="M17.4 12.93C17.8 11.89 18 10.83 18 9.75C18 8.55 17.77 7.4 17.31 6.3C16.85 5.2 16.2 4.23 15.36 3.39C14.52 2.55 13.55 1.9 12.45 1.44C11.35 0.98 10.2 0.75 9 0.75C7.8 0.75 6.65 0.98 5.55 1.44C4.45 1.9 3.48 2.55 2.64 3.39C1.8 4.23 1.15 5.2 0.69 6.3C0.23 7.4 0 8.55 0 9.75C0 10.95 0.23 12.1 0.69 13.2C1.15 14.3 1.8 15.27 2.64 16.11C3.48 16.95 4.45 17.6 5.55 18.06C6.65 18.52 7.8 18.75 9 18.75C10.68 18.75 12.24 18.31 13.68 17.43C13.84 17.35 13.94 17.21 13.98 17.01C14.02 16.81 13.99 16.63 13.89 16.47C13.79 16.31 13.65 16.21 13.47 16.17C13.29 16.13 13.1 16.15 12.9 16.23C12.42 16.55 11.88 16.81 11.28 17.01C11.32 15.25 11.68 14.03 12.36 13.35C12.8 12.91 13.36 12.69 14.04 12.69C14.6 12.69 15.2 12.83 15.84 13.11C15.68 13.39 15.5 13.67 15.3 13.95C15.18 14.11 15.14 14.29 15.18 14.49C15.22 14.69 15.32 14.84 15.48 14.94C15.64 15.04 15.82 15.07 16.02 15.03C16.22 14.99 16.38 14.89 16.5 14.73C16.82 14.21 17.1 13.67 17.34 13.11L17.4 12.93ZM9 2.13C10.24 2.13 11.39 2.41 12.45 2.97C13.51 3.53 14.4 4.29 15.12 5.25C15.84 6.21 16.3 7.29 16.5 8.49C15.5 8.13 14.48 7.83 13.44 7.59C11.84 7.23 10.35 7.05 8.97 7.05C7.59 7.05 6.12 7.21 4.56 7.53C3.52 7.77 2.5 8.07 1.5 8.43C1.74 7.27 2.21 6.21 2.91 5.25C3.61 4.29 4.49 3.53 5.55 2.97C6.61 2.41 7.76 2.13 9 2.13ZM2.16 13.11C2.84 12.83 3.44 12.69 3.96 12.69H4.02C4.78 12.69 5.36 12.95 5.76 13.47C6.36 14.19 6.68 15.37 6.72 17.01C5.72 16.69 4.83 16.19 4.05 15.51C3.27 14.83 2.64 14.03 2.16 13.11ZM14.04 11.31C12.96 11.31 12.08 11.65 11.4 12.33C10.4 13.33 9.9 14.97 9.9 17.25V17.31C9.58 17.35 9.28 17.37 9 17.37C8.72 17.37 8.42 17.35 8.1 17.31V17.25C8.1 14.97 7.62 13.33 6.66 12.33C5.98 11.65 5.1 11.31 4.02 11.31H3.96C3.24 11.31 2.48 11.47 1.68 11.79C1.52 11.19 1.42 10.59 1.38 9.99C2.18 9.67 3.08 9.39 4.08 9.15C5.84 8.67 7.48 8.43 9 8.43C10.52 8.43 12.22 8.69 14.1 9.21C15.06 9.45 15.88 9.71 16.56 9.99C16.56 10.59 16.48 11.19 16.32 11.79C15.52 11.47 14.76 11.31 14.04 11.31ZM11.4 10.41C11.4 10.61 11.33 10.78 11.19 10.92C11.05 11.06 10.88 11.13 10.68 11.13H7.26C7.06 11.13 6.9 11.06 6.78 10.92C6.66 10.78 6.6 10.61 6.6 10.41C6.6 10.21 6.66 10.04 6.78 9.9C6.9 9.76 7.06 9.69 7.26 9.69H10.68C10.88 9.69 11.05 9.76 11.19 9.9C11.33 10.04 11.4 10.21 11.4 10.41Z" fill="#050B20"/>
</g>
</g>
</g>
</g>
</g>
<defs>
<clipPath id="clip0_8_42">
<rect width="455.5" height="27.75" fill="white" transform="translate(0 0.75)"/>
</clipPath>
<clipPath id="clip1_8_42">
<rect width="18" height="18" fill="white" transform="matrix(1 0 0 -1 0 18.75)"/>
</clipPath>
</defs>
</svg>
