<svg width="19" height="19" viewBox="0 0 19 19" fill="none" xmlns="http://www.w3.org/2000/svg">
<rect width="19" height="19" fill="#F5F5F5"/>
<g id="details v1">
<rect width="1920" height="7036.19" transform="translate(-735 -1104)" fill="white"/>
<rect width="1920" height="7036.19" transform="translate(-735 -1104)" fill="white"/>
<g id="Section &#226;&#134;&#146; Main">
<g id="List">
<g id="Item" clip-path="url(#clip0_8_42)">
<g id="Icon" clip-path="url(#clip1_8_42)">
<path id="Vector" d="M17.96 7.46993H16.28C16.12 7.46993 15.98 7.52993 15.86 7.64993C15.74 7.76993 15.68 7.90993 15.68 8.06993V8.60993H15.14V8.06993C15.14 7.90993 15.08 7.77993 14.96 7.67993C14.84 7.57993 14.7 7.52993 14.54 7.52993H13.7L12.14 5.96993C12.1 5.92993 12.04 5.88993 11.96 5.84993C11.88 5.80993 11.82 5.78993 11.78 5.78993H10.04V4.70993H11.18C11.34 4.70993 11.48 4.64993 11.6 4.52993C11.72 4.40993 11.78 4.26993 11.78 4.10993C11.78 3.94993 11.72 3.81993 11.6 3.71993C11.48 3.61993 11.34 3.56993 11.18 3.56993H6.14C5.98 3.56993 5.84 3.61993 5.72 3.71993C5.6 3.81993 5.54 3.94993 5.54 4.10993C5.54 4.26993 5.6 4.40993 5.72 4.52993C5.84 4.64993 5.98 4.70993 6.14 4.70993H7.28V5.78993H5.54L5.3 5.90993L5.12 6.02993L4.16 7.46993H2.78C2.62 7.46993 2.48 7.52993 2.36 7.64993C2.24 7.76993 2.18 7.90993 2.18 8.06993V9.74993H1.64V8.06993C1.64 7.90993 1.58 7.77993 1.46 7.67993C1.34 7.57993 1.2 7.51993 1.04 7.49993C0.88 7.47993 0.75 7.52993 0.65 7.64993C0.55 7.76993 0.5 7.90993 0.5 8.06993V13.1099C0.5 13.2699 0.55 13.4099 0.65 13.5299C0.75 13.6499 0.88 13.7099 1.04 13.7099C1.2 13.7099 1.34 13.6499 1.46 13.5299C1.58 13.4099 1.64 13.2699 1.64 13.1099V10.8899H2.18V13.1099C2.18 13.2699 2.24 13.4099 2.36 13.5299C2.48 13.6499 2.6 13.7099 2.72 13.7099H4.1L5.06 15.6299L5.18 15.7499L5.3 15.8699L5.54 15.9299H12.32C12.4 15.9299 12.48 15.9099 12.56 15.8699L12.74 15.7499L14.84 13.1099H15.68V13.7099C15.68 13.8699 15.74 13.9999 15.86 14.0999C15.98 14.1999 16.12 14.2499 16.28 14.2499H17.96C18.12 14.2499 18.25 14.1999 18.35 14.0999C18.45 13.9999 18.5 13.8699 18.5 13.7099V8.06993C18.5 7.90993 18.45 7.77993 18.35 7.67993C18.25 7.57993 18.12 7.52993 17.96 7.52993V7.46993ZM17.36 13.1099H16.82V12.5699C16.82 12.4099 16.76 12.2699 16.64 12.1499C16.52 12.0299 16.4 11.9699 16.28 11.9699L14.54 12.0299L14.3 12.0899L14.12 12.2099L12.02 14.7899H5.9L4.94 12.8099L4.82 12.6899L4.52 12.5699H3.32V8.60993H4.46H4.64L4.82 8.48993L5.84 6.92993H7.82C7.98 6.92993 8.11 6.87993 8.21 6.77993C8.31 6.67993 8.36 6.54993 8.36 6.38993V4.70993H8.96V6.38993C8.96 6.54993 9.01 6.67993 9.11 6.77993C9.21 6.87993 9.34 6.92993 9.5 6.92993H11.54L13.04 8.42993C13.08 8.50993 13.14 8.55993 13.22 8.57993C13.3 8.59993 13.38 8.60993 13.46 8.60993H14V9.20993C14 9.36993 14.05 9.49993 14.15 9.59993C14.25 9.69993 14.38 9.74993 14.54 9.74993H16.28C16.4 9.74993 16.52 9.69993 16.64 9.59993C16.76 9.49993 16.82 9.36993 16.82 9.20993V8.60993H17.36V13.1099ZM11.48 8.72993C11.36 8.64993 11.23 8.61993 11.09 8.63993C10.95 8.65993 10.82 8.72993 10.7 8.84993L8.42 12.3299L7.04 11.2499C6.92 11.1699 6.78 11.1399 6.62 11.1599C6.46 11.1799 6.33 11.2499 6.23 11.3699C6.13 11.4899 6.09 11.6299 6.11 11.7899C6.13 11.9499 6.2 12.0699 6.32 12.1499L8.18 13.5899C8.3 13.6699 8.42 13.7099 8.54 13.7099H8.6C8.76 13.6699 8.88 13.5699 8.96 13.4099L11.66 9.50993C11.74 9.38993 11.77 9.24993 11.75 9.08993C11.73 8.92993 11.64 8.80993 11.48 8.72993Z" fill="#050B20"/>
</g>
</g>
</g>
</g>
</g>
<defs>
<clipPath id="clip0_8_42">
<rect width="455.5" height="27.75" fill="white" transform="translate(0.5 0.75)"/>
</clipPath>
<clipPath id="clip1_8_42">
<rect width="18" height="18" fill="white" transform="matrix(1 0 0 -1 0.5 18.75)"/>
</clipPath>
</defs>
</svg>
