<svg width="37" height="37" viewBox="0 0 37 37" fill="none" xmlns="http://www.w3.org/2000/svg">
<rect x="0.5" y="0.5" width="36" height="36" rx="18" fill="white"/>
<g clip-path="url(#clip0_9_69)">
<path d="M21.8998 24.5C21.6598 24.5 21.4332 24.4333 21.2198 24.3L18.6198 22.66C18.5398 22.6067 18.4598 22.6067 18.3798 22.66L15.7798 24.3C15.5398 24.46 15.2732 24.52 14.9798 24.48C14.6865 24.44 14.4332 24.3267 14.2198 24.14C13.9532 23.9 13.8198 23.5933 13.8198 23.22V13.78C13.8198 13.4333 13.9465 13.1333 14.1998 12.88C14.4532 12.6267 14.7532 12.5 15.0998 12.5H21.8998C22.2465 12.5 22.5465 12.6267 22.7998 12.88C23.0532 13.1333 23.1798 13.4333 23.1798 13.78V23.22C23.1798 23.5667 23.0532 23.8667 22.7998 24.12C22.5465 24.3733 22.2465 24.5 21.8998 24.5ZM18.4998 21.58C18.7398 21.58 18.9665 21.6467 19.1798 21.78L21.7798 23.42C21.8065 23.4467 21.8465 23.46 21.8998 23.46C21.9532 23.46 21.9998 23.44 22.0398 23.4C22.0798 23.36 22.0998 23.3 22.0998 23.22V13.78C22.0998 13.7 22.0798 13.64 22.0398 13.6C21.9998 13.56 21.9532 13.54 21.8998 13.54H15.0998C15.0465 13.54 14.9998 13.56 14.9598 13.6C14.9198 13.64 14.8998 13.7 14.8998 13.78V23.22C14.8998 23.3 14.9332 23.3667 14.9998 23.42C15.0665 23.4733 15.1398 23.4733 15.2198 23.42L17.8198 21.78C18.0332 21.6467 18.2598 21.58 18.4998 21.58Z" fill="#050B20"/>
</g>
<defs>
<clipPath id="clip0_9_69">
<rect width="12" height="12" fill="white" transform="matrix(1 0 0 -1 12.5 24.5)"/>
</clipPath>
</defs>
</svg>
