<svg width="16" height="15" viewBox="0 0 16 15" fill="none" xmlns="http://www.w3.org/2000/svg">
<path d="M7.50986 1.2C6.47653 1.2 5.53486 1.45 4.68486 1.95C3.83486 2.45 3.15153 3.13333 2.63486 4C2.1182 4.86667 1.85986 5.80833 1.85986 6.825C1.85986 7.84167 2.1182 8.78333 2.63486 9.65C3.15153 10.5167 3.83486 11.2 4.68486 11.7C5.53486 12.2 6.47653 12.45 7.50986 12.45C8.1432 12.45 8.75986 12.3417 9.35986 12.125C9.95986 11.9083 10.5099 11.6167 11.0099 11.25L13.3599 13.55C13.4599 13.6833 13.6015 13.75 13.7849 13.75C13.9682 13.75 14.1182 13.6917 14.2349 13.575C14.3515 13.4583 14.4099 13.3083 14.4099 13.125C14.4099 12.9417 14.3432 12.8 14.2099 12.7L11.9099 10.35C12.2765 9.85 12.5682 9.3 12.7849 8.7C13.0015 8.1 13.1099 7.48333 13.1099 6.85C13.1099 5.81667 12.8599 4.86667 12.3599 4C11.8599 3.13333 11.1765 2.45 10.3099 1.95C9.4432 1.45 8.50986 1.2 7.50986 1.2ZM7.50986 2.45C8.30986 2.45 9.0432 2.65 9.70986 3.05C10.3765 3.45 10.9015 3.98333 11.2849 4.65C11.6682 5.31667 11.8599 6.04167 11.8599 6.825C11.8599 7.60833 11.6682 8.34167 11.2849 9.025C10.9015 9.70833 10.3765 10.2417 9.70986 10.625C9.0432 11.0083 8.30986 11.2 7.50986 11.2C6.70986 11.2 5.97653 11.0083 5.30986 10.625C4.6432 10.2417 4.10986 9.70833 3.70986 9.025C3.30986 8.34167 3.10986 7.60833 3.10986 6.825C3.10986 6.04167 3.30986 5.31667 3.70986 4.65C4.10986 3.98333 4.6432 3.45 5.30986 3.05C5.97653 2.65 6.70986 2.45 7.50986 2.45Z" fill="white"/>
</svg>
