<svg width="18" height="19" viewBox="0 0 18 19" fill="none" xmlns="http://www.w3.org/2000/svg">
<rect width="18" height="19" fill="#F5F5F5"/>
<g id="details v1">
<rect width="1920" height="7036.19" transform="translate(-1303 -1199)" fill="white"/>
<rect width="1920" height="7036.19" transform="translate(-1303 -1199)" fill="white"/>
<g id="Section &#226;&#134;&#146; Main">
<g id="Border">
<rect x="-41.5" y="-201.5" width="398" height="461" rx="15.5" stroke="#E9E9E9"/>
<g id="Overlay">
<rect x="-11" y="-10.25" width="40" height="40" rx="20" fill="#405FF2" fill-opacity="0.1"/>
<g id="SVG">
<path id="Vector" fill-rule="evenodd" clip-rule="evenodd" d="M9 3.5625C6.00839 3.5625 3.5625 6.04431 3.5625 9.13163C3.5625 10.6884 4.18517 12.4125 5.20406 13.7438C6.22558 15.0787 7.57762 15.9375 9 15.9375C10.4224 15.9375 11.7744 15.0787 12.796 13.7438C13.8148 12.4125 14.4375 10.6884 14.4375 9.13163C14.4375 6.04431 11.9916 3.5625 9 3.5625ZM2.4375 9.13163C2.4375 5.44613 5.36419 2.4375 9 2.4375C12.6358 2.4375 15.5625 5.44613 15.5625 9.13163C15.5625 10.9613 14.8421 12.9214 13.6894 14.4275C12.5393 15.9303 10.8913 17.0625 9 17.0625C7.10866 17.0625 5.46071 15.9303 4.31065 14.4275C3.15797 12.9214 2.4375 10.9613 2.4375 9.13163Z" fill="#405FF2"/>
<path id="Vector_2" fill-rule="evenodd" clip-rule="evenodd" d="M6.5625 8.625C6.5625 7.2788 7.65383 6.1875 9 6.1875C10.3462 6.1875 11.4375 7.2788 11.4375 8.625C11.4375 9.97117 10.3462 11.0625 9 11.0625C7.65383 11.0625 6.5625 9.97117 6.5625 8.625ZM9 7.3125C8.27513 7.3125 7.6875 7.90013 7.6875 8.625C7.6875 9.34987 8.27513 9.9375 9 9.9375C9.72487 9.9375 10.3125 9.34987 10.3125 8.625C10.3125 7.90013 9.72487 7.3125 9 7.3125Z" fill="#405FF2"/>
</g>
</g>
</g>
</g>
</g>
</svg>
