<svg width="16" height="15" viewBox="0 0 16 15" fill="none" xmlns="http://www.w3.org/2000/svg">
<g clip-path="url(#clip0_9_621)">
<path d="M8.25 8.45C5.98333 8.45 4.25 8.96667 3.05 10C1.85 11.0333 1.25 12.5167 1.25 14.45C1.25 14.6167 1.30833 14.75 1.425 14.85C1.54167 14.95 1.66667 15 1.8 15H14.7C14.8333 15 14.9583 14.95 15.075 14.85C15.1917 14.75 15.25 14.6167 15.25 14.45C15.25 12.5167 14.65 11.0333 13.45 10C12.25 8.96667 10.5167 8.45 8.25 8.45ZM2.4 13.9C2.6 11 4.55 9.55 8.25 9.55C11.95 9.55 13.9 11 14.1 13.9H2.4ZM8.25 0C7.58333 0 6.96667 0.158333 6.4 0.474999C5.83333 0.791666 5.39167 1.23333 5.075 1.8C4.75833 2.36667 4.6 3 4.6 3.7C4.6 4.4 4.76667 5.05833 5.1 5.675C5.43333 6.29167 5.875 6.775 6.425 7.125C6.975 7.475 7.58333 7.65 8.25 7.65C8.91667 7.65 9.525 7.475 10.075 7.125C10.625 6.775 11.0667 6.29167 11.4 5.675C11.7333 5.05833 11.9 4.4 11.9 3.7C11.9 3 11.7417 2.36667 11.425 1.8C11.1083 1.23333 10.6667 0.791666 10.1 0.474999C9.53333 0.158333 8.91667 0 8.25 0ZM8.25 6.55C7.55 6.55 6.95 6.275 6.45 5.725C5.95 5.175 5.7 4.50833 5.7 3.725C5.7 2.94167 5.94167 2.30833 6.425 1.825C6.90833 1.34167 7.51667 1.1 8.25 1.1C8.98333 1.1 9.59167 1.35 10.075 1.85C10.5583 2.35 10.8 2.98333 10.8 3.75C10.8 4.51667 10.55 5.175 10.05 5.725C9.55 6.275 8.95 6.55 8.25 6.55Z" fill="white"/>
</g>
<defs>
<clipPath id="clip0_9_621">
<rect width="15" height="15" fill="white" transform="matrix(1 0 0 -1 0.75 15)"/>
</clipPath>
</defs>
</svg>
