<svg width="14" height="14" viewBox="0 0 14 14" fill="none" xmlns="http://www.w3.org/2000/svg">
<path d="M6.97128 4.00586C8.81698 4.00586 10.3404 5.5293 10.3404 7.375C10.3404 9.25 8.81698 10.7441 6.97128 10.7441C5.09628 10.7441 3.60214 9.25 3.60214 7.375C3.60214 5.5293 5.09628 4.00586 6.97128 4.00586ZM6.97128 9.57227C8.17245 9.57227 9.13925 8.60547 9.13925 7.375C9.13925 6.17383 8.17245 5.20703 6.97128 5.20703C5.74081 5.20703 4.77402 6.17383 4.77402 7.375C4.77402 8.60547 5.77011 9.57227 6.97128 9.57227ZM11.2486 3.88867C11.2486 4.32812 10.8971 4.67969 10.4576 4.67969C10.0182 4.67969 9.66659 4.32812 9.66659 3.88867C9.66659 3.44922 10.0182 3.09766 10.4576 3.09766C10.8971 3.09766 11.2486 3.44922 11.2486 3.88867ZM13.4752 4.67969C13.5338 5.76367 13.5338 9.01562 13.4752 10.0996C13.4166 11.1543 13.1822 12.0625 12.4205 12.8535C11.6588 13.6152 10.7213 13.8496 9.66659 13.9082C8.58261 13.9668 5.33066 13.9668 4.24667 13.9082C3.19198 13.8496 2.28378 13.6152 1.49277 12.8535C0.731047 12.0625 0.496672 11.1543 0.438078 10.0996C0.379484 9.01562 0.379484 5.76367 0.438078 4.67969C0.496672 3.625 0.731047 2.6875 1.49277 1.92578C2.28378 1.16406 3.19198 0.929688 4.24667 0.871094C5.33066 0.8125 8.58261 0.8125 9.66659 0.871094C10.7213 0.929688 11.6588 1.16406 12.4205 1.92578C13.1822 2.6875 13.4166 3.625 13.4752 4.67969ZM12.0689 11.2422C12.4205 10.3926 12.3326 8.3418 12.3326 7.375C12.3326 6.4375 12.4205 4.38672 12.0689 3.50781C11.8346 2.95117 11.3951 2.48242 10.8385 2.27734C9.95956 1.92578 7.90878 2.01367 6.97128 2.01367C6.00448 2.01367 3.9537 1.92578 3.10409 2.27734C2.51816 2.51172 2.0787 2.95117 1.84433 3.50781C1.49277 4.38672 1.58066 6.4375 1.58066 7.375C1.58066 8.3418 1.49277 10.3926 1.84433 11.2422C2.0787 11.8281 2.51816 12.2676 3.10409 12.502C3.9537 12.8535 6.00448 12.7656 6.97128 12.7656C7.90878 12.7656 9.95956 12.8535 10.8385 12.502C11.3951 12.2676 11.8639 11.8281 12.0689 11.2422Z" fill="#050B20"/>
<a href="https://www.figma.com/design/6WpYclPFEika7EsOcjlzjt/75--Car-Dealer-Website-Templates--Community-?node-id=10-1962">
<rect fill="black" fill-opacity="0" x="0.178312" y="-1.125" width="13.125" height="17.25"/>
</a>
</svg>
