<svg width="14" height="14" viewBox="0 0 14 14" fill="none" xmlns="http://www.w3.org/2000/svg">
<path d="M7.3707 3.4458C9.2164 3.4458 10.7398 4.96924 10.7398 6.81494C10.7398 8.68994 9.2164 10.1841 7.3707 10.1841C5.4957 10.1841 4.00155 8.68994 4.00155 6.81494C4.00155 4.96924 5.4957 3.4458 7.3707 3.4458ZM7.3707 9.01221C8.57187 9.01221 9.53866 8.04541 9.53866 6.81494C9.53866 5.61377 8.57187 4.64697 7.3707 4.64697C6.14023 4.64697 5.17343 5.61377 5.17343 6.81494C5.17343 8.04541 6.16952 9.01221 7.3707 9.01221ZM11.648 3.32861C11.648 3.76807 11.2965 4.11963 10.857 4.11963C10.4176 4.11963 10.066 3.76807 10.066 3.32861C10.066 2.88916 10.4176 2.5376 10.857 2.5376C11.2965 2.5376 11.648 2.88916 11.648 3.32861ZM13.8746 4.11963C13.9332 5.20361 13.9332 8.45557 13.8746 9.53955C13.816 10.5942 13.5816 11.5024 12.8199 12.2935C12.0582 13.0552 11.1207 13.2896 10.066 13.3481C8.98202 13.4067 5.73007 13.4067 4.64609 13.3481C3.5914 13.2896 2.6832 13.0552 1.89218 12.2935C1.13046 11.5024 0.896086 10.5942 0.837492 9.53955C0.778898 8.45557 0.778898 5.20361 0.837492 4.11963C0.896086 3.06494 1.13046 2.12744 1.89218 1.36572C2.6832 0.604004 3.5914 0.369629 4.64609 0.311035C5.73007 0.252441 8.98202 0.252441 10.066 0.311035C11.1207 0.369629 12.0582 0.604004 12.8199 1.36572C13.5816 2.12744 13.816 3.06494 13.8746 4.11963ZM12.4684 10.6821C12.8199 9.83252 12.732 7.78174 12.732 6.81494C12.732 5.87744 12.8199 3.82666 12.4684 2.94775C12.234 2.39111 11.7945 1.92236 11.2379 1.71729C10.359 1.36572 8.3082 1.45361 7.3707 1.45361C6.4039 1.45361 4.35312 1.36572 3.50351 1.71729C2.91757 1.95166 2.47812 2.39111 2.24374 2.94775C1.89218 3.82666 1.98007 5.87744 1.98007 6.81494C1.98007 7.78174 1.89218 9.83252 2.24374 10.6821C2.47812 11.2681 2.91757 11.7075 3.50351 11.9419C4.35312 12.2935 6.4039 12.2056 7.3707 12.2056C8.3082 12.2056 10.359 12.2935 11.2379 11.9419C11.7945 11.7075 12.2633 11.2681 12.4684 10.6821Z" fill="white"/>
<a href="https://www.figma.com/design/PzQUNVEIeMrv8HjdXbjYra?node-id=19-2">
<rect fill="black" fill-opacity="0" x="0.178312" y="-1.125" width="13.125" height="17.25"/>
</a>
</svg>
