<svg width="14" height="14" viewBox="0 0 14 14" fill="none" xmlns="http://www.w3.org/2000/svg">
<path d="M3.73788 13.4399H1.01327V4.68018H3.73788V13.4399ZM2.36093 3.5083C1.51132 3.5083 0.808195 2.77588 0.808195 1.89697C0.808195 1.04736 1.51132 0.344238 2.36093 0.344238C3.23984 0.344238 3.94296 1.04736 3.94296 1.89697C3.94296 2.77588 3.23984 3.5083 2.36093 3.5083ZM13.9039 13.4399H11.2086V9.19189C11.2086 8.1665 11.1793 6.87744 9.77304 6.87744C8.36679 6.87744 8.16171 7.96143 8.16171 9.104V13.4399H5.4371V4.68018H8.04452V5.88135H8.07382C8.45468 5.20752 9.33359 4.4751 10.6519 4.4751C13.4059 4.4751 13.9332 6.2915 13.9332 8.63525V13.4399H13.9039Z" fill="white"/>
<a href="https://www.figma.com/design/PzQUNVEIeMrv8HjdXbjYra?node-id=19-2">
<rect fill="black" fill-opacity="0" x="0.178312" y="-1.125" width="13.125" height="17.25"/>
</a>
</svg>
