<svg width="21" height="23" viewBox="0 0 21 23" fill="none" xmlns="http://www.w3.org/2000/svg">
<rect width="21" height="23" fill="#F5F5F5"/>
<g id="Contact Us">
<rect width="1920" height="2848.09" transform="translate(-1150 -1121)" fill="white"/>
<rect width="1920" height="2848.09" transform="translate(-1150 -1121)" fill="white"/>
<g id="Section ">
<g id="Border">
<rect x="-39.6992" y="-174" width="549.19" height="551.5" rx="15.5" stroke="#E1E1E1"/>
<g id="pin.svg" clip-path="url(#clip0_8_42)">
<g id="pin.svg fill" clip-path="url(#clip1_8_42)">
<g id="pin.svg_2" clip-path="url(#clip2_8_42)">
<path id="Vector" fill-rule="evenodd" clip-rule="evenodd" d="M10.8014 2.28247C6.48022 2.28247 2.94726 5.86731 2.94726 10.3268C2.94726 12.5755 3.84668 15.0658 5.31841 16.9889C6.79394 18.917 8.74689 20.1575 10.8014 20.1575C12.856 20.1575 14.8089 18.917 16.2845 16.9889C17.7562 15.0658 18.6556 12.5755 18.6556 10.3268C18.6556 5.86731 15.1226 2.28247 10.8014 2.28247ZM1.32227 10.3268C1.32227 5.00326 5.5497 0.657471 10.8014 0.657471C16.0531 0.657471 20.2806 5.00326 20.2806 10.3268C20.2806 12.9696 19.2399 15.8009 17.575 17.9764C15.9138 20.1471 13.5334 21.7825 10.8014 21.7825C8.0695 21.7825 5.68911 20.1471 4.02793 17.9764C2.36294 15.8009 1.32227 12.9696 1.32227 10.3268Z" fill="#050B20"/>
<path id="Vector_2" fill-rule="evenodd" clip-rule="evenodd" d="M7.2793 9.59505C7.2793 7.65055 8.85566 6.07422 10.8001 6.07422C12.7446 6.07422 14.321 7.65055 14.321 9.59505C14.321 11.5395 12.7446 13.1158 10.8001 13.1158C8.85566 13.1158 7.2793 11.5395 7.2793 9.59505ZM10.8001 7.69922C9.7531 7.69922 8.9043 8.54801 8.9043 9.59505C8.9043 10.642 9.7531 11.4908 10.8001 11.4908C11.8472 11.4908 12.696 10.642 12.696 9.59505C12.696 8.54801 11.8472 7.69922 10.8001 7.69922Z" fill="#E1E1E1"/>
</g>
</g>
</g>
</g>
</g>
</g>
<defs>
<clipPath id="clip0_8_42">
<rect width="20" height="22" fill="white" transform="translate(0.800781 0.219971)"/>
</clipPath>
<clipPath id="clip1_8_42">
<rect width="20" height="22" fill="white" transform="translate(0.800781 0.219971)"/>
</clipPath>
<clipPath id="clip2_8_42">
<rect width="20" height="22" fill="white" transform="translate(0.800781 0.219971)"/>
</clipPath>
</defs>
</svg>
