<svg width="25" height="23" viewBox="0 0 25 23" fill="none" xmlns="http://www.w3.org/2000/svg">
<rect width="25" height="23" fill="#F5F5F5"/>
<g id="Contact Us">
<rect width="1920" height="2848.09" transform="translate(-1150 -1229)" fill="white"/>
<rect width="1920" height="2848.09" transform="translate(-1150 -1229)" fill="white"/>
<g id="Section ">
<g id="Border">
<rect x="-39.6992" y="-282" width="549.19" height="551.5" rx="15.5" stroke="#E1E1E1"/>
<g id="mail-1.svg" clip-path="url(#clip0_8_42)">
<g id="mail-1.svg fill" clip-path="url(#clip1_8_42)">
<g id="mail-1.svg_2" clip-path="url(#clip2_8_42)">
<path id="Vector" fill-rule="evenodd" clip-rule="evenodd" d="M12.5592 13.3069C11.8344 13.3069 11.1119 13.0674 10.5073 12.5886L5.64857 8.67125C5.29865 8.38959 5.24449 7.87717 5.52507 7.52834C5.80782 7.18059 6.31915 7.12534 6.66799 7.40592L11.5224 11.3189C12.1324 11.8021 12.9914 11.8021 13.6057 11.3146L18.4114 7.40809C18.7602 7.12317 19.2715 7.17734 19.5554 7.52617C19.8381 7.87392 19.785 8.38525 19.4373 8.66909L14.6229 12.5821C14.0141 13.0653 13.2861 13.3069 12.5592 13.3069Z" fill="#E1E1E1"/>
<path id="Vector_2" fill-rule="evenodd" clip-rule="evenodd" d="M17.8487 20.3868C17.8508 20.3846 17.8595 20.3868 17.866 20.3868C19.1021 20.3868 20.1984 19.9448 21.0391 19.1052C22.0152 18.1334 22.5514 16.737 22.5514 15.1738V7.73338C22.5514 4.70763 20.5733 2.51171 17.8487 2.51171H7.21251C4.48793 2.51171 2.50976 4.70763 2.50976 7.73338V15.1738C2.50976 16.737 3.04709 18.1334 4.02209 19.1052C4.86276 19.9448 5.96018 20.3868 7.19518 20.3868H17.8487ZM7.19193 22.0118C5.52034 22.0118 4.02751 21.4051 2.87485 20.2568C1.5911 18.9763 0.884766 17.1714 0.884766 15.1738V7.73338C0.884766 3.83013 3.60501 0.886719 7.21251 0.886719H17.8487C21.4562 0.886719 24.1764 3.83013 24.1764 7.73338V15.1738C24.1764 17.1714 23.4701 18.9763 22.1863 20.2568C21.0348 21.404 19.5408 22.0118 17.866 22.0118H7.19193Z" fill="#050B20"/>
</g>
</g>
</g>
</g>
</g>
</g>
<defs>
<clipPath id="clip0_8_42">
<rect width="24" height="22" fill="white" transform="translate(0.800781 0.719971)"/>
</clipPath>
<clipPath id="clip1_8_42">
<rect width="24" height="22" fill="white" transform="translate(0.800781 0.719971)"/>
</clipPath>
<clipPath id="clip2_8_42">
<rect width="24" height="22" fill="white" transform="translate(0.800781 0.719971)"/>
</clipPath>
</defs>
</svg>
