<svg width="19" height="19" viewBox="0 0 19 19" fill="none" xmlns="http://www.w3.org/2000/svg">
<rect width="19" height="19" fill="#F5F5F5"/>
<g id="details v1">
<rect width="1920" height="7036.19" transform="translate(-394 -346)" fill="white"/>
<rect width="1920" height="7036.19" transform="translate(-394 -346)" fill="white"/>
<g id="Section &#226;&#134;&#146; Main">
<g id="Background">
<rect x="-19.8901" y="-8.75" width="127.13" height="39.75" rx="19.875" fill="#E9F2FF"/>
<g id="Icon" clip-path="url(#clip0_8_42)">
<path id="Vector" d="M18.1099 11.5904C18.1099 13.6304 17.5099 15.4504 16.3099 17.0504C16.1899 17.2104 16.0299 17.3004 15.8299 17.3204C15.6299 17.3404 15.4499 17.2904 15.2899 17.1704C15.1299 17.0504 15.0399 16.9004 15.0199 16.7204C14.9999 16.5404 15.0499 16.3704 15.1699 16.2104C16.2099 14.8504 16.7299 13.3104 16.7299 11.5904C16.7299 10.2304 16.3899 8.97042 15.7099 7.81042C15.0299 6.65042 14.0999 5.73042 12.9199 5.05042C11.7399 4.37042 10.4699 4.03042 9.10986 4.03042C7.74986 4.03042 6.47986 4.37042 5.29986 5.05042C4.11986 5.73042 3.18986 6.65042 2.50986 7.81042C1.82986 8.97042 1.48986 10.2304 1.48986 11.5904C1.48986 13.3104 2.00986 14.8504 3.04986 16.2104C3.16986 16.3704 3.21986 16.5404 3.19986 16.7204C3.17986 16.9004 3.08986 17.0504 2.92986 17.1704C2.76986 17.2904 2.58986 17.3404 2.38986 17.3204C2.18986 17.3004 2.02986 17.2104 1.90986 17.0504C0.709863 15.4504 0.109863 13.6304 0.109863 11.5904C0.109863 9.99042 0.509863 8.50042 1.30986 7.12042C2.10986 5.74042 3.19986 4.65042 4.57986 3.85042C5.95986 3.05042 7.46986 2.65042 9.10986 2.65042C10.7499 2.65042 12.2599 3.05042 13.6399 3.85042C15.0199 4.65042 16.1099 5.74042 16.9099 7.12042C17.7099 8.50042 18.1099 9.99042 18.1099 11.5904ZM13.5499 7.39042C13.7099 7.51042 13.7899 7.67042 13.7899 7.87042C13.7899 8.07042 13.7099 8.23042 13.5499 8.35042L11.2699 10.6904C11.4699 11.0504 11.5699 11.4304 11.5699 11.8304C11.5699 12.5104 11.3299 13.0904 10.8499 13.5704C10.3699 14.0504 9.78986 14.2904 9.10986 14.2904C8.42986 14.2904 7.84986 14.0504 7.36986 13.5704C6.88986 13.0904 6.64986 12.5104 6.64986 11.8304C6.64986 11.1504 6.88986 10.5704 7.36986 10.0904C7.84986 9.61042 8.42986 9.37042 9.10986 9.37042C9.50986 9.37042 9.88986 9.47042 10.2499 9.67042L12.5899 7.39042C12.7099 7.23042 12.8699 7.15042 13.0699 7.15042C13.2699 7.15042 13.4299 7.23042 13.5499 7.39042ZM10.1899 11.8304C10.1899 11.5504 10.0799 11.3104 9.85986 11.1104C9.63986 10.9104 9.38986 10.8104 9.10986 10.8104C8.82986 10.8104 8.57986 10.9104 8.35986 11.1104C8.13986 11.3104 8.02986 11.5504 8.02986 11.8304C8.02986 12.1104 8.13986 12.3604 8.35986 12.5804C8.57986 12.8004 8.82986 12.9104 9.10986 12.9104C9.38986 12.9104 9.63986 12.8004 9.85986 12.5804C10.0799 12.3604 10.1899 12.1104 10.1899 11.8304Z" fill="#405FF2"/>
</g>
</g>
</g>
</g>
<defs>
<clipPath id="clip0_8_42">
<rect width="18" height="18" fill="white" transform="matrix(1 0 0 -1 0.109863 18.9702)"/>
</clipPath>
</defs>
</svg>
