<svg width="19" height="19" viewBox="0 0 19 19" fill="none" xmlns="http://www.w3.org/2000/svg">
<g clip-path="url(#clip0_9_78)">
<path d="M18.23 10.64C18.23 12.68 17.63 14.5 16.43 16.1C16.31 16.26 16.15 16.35 15.95 16.37C15.75 16.39 15.57 16.34 15.41 16.22C15.25 16.1 15.16 15.95 15.14 15.77C15.12 15.59 15.17 15.42 15.29 15.26C16.33 13.9 16.85 12.36 16.85 10.64C16.85 9.27998 16.51 8.01998 15.83 6.85998C15.15 5.69998 14.22 4.77998 13.04 4.09998C11.86 3.41998 10.59 3.07998 9.22998 3.07998C7.86998 3.07998 6.59998 3.41998 5.41998 4.09998C4.23998 4.77998 3.30998 5.69998 2.62998 6.85998C1.94998 8.01998 1.60998 9.27998 1.60998 10.64C1.60998 12.36 2.12998 13.9 3.16998 15.26C3.28998 15.42 3.33998 15.59 3.31998 15.77C3.29998 15.95 3.20998 16.1 3.04998 16.22C2.88998 16.34 2.70998 16.39 2.50998 16.37C2.30998 16.35 2.14998 16.26 2.02998 16.1C0.82998 14.5 0.22998 12.68 0.22998 10.64C0.22998 9.03998 0.62998 7.54998 1.42998 6.16998C2.22998 4.78998 3.31998 3.69998 4.69998 2.89998C6.07998 2.09998 7.58998 1.69998 9.22998 1.69998C10.87 1.69998 12.38 2.09998 13.76 2.89998C15.14 3.69998 16.23 4.78998 17.03 6.16998C17.83 7.54998 18.23 9.03998 18.23 10.64ZM13.67 6.43998C13.83 6.55998 13.91 6.71998 13.91 6.91998C13.91 7.11998 13.83 7.27998 13.67 7.39998L11.39 9.73998C11.59 10.1 11.69 10.48 11.69 10.88C11.69 11.56 11.45 12.14 10.97 12.62C10.49 13.1 9.90998 13.34 9.22998 13.34C8.54998 13.34 7.96998 13.1 7.48998 12.62C7.00998 12.14 6.76998 11.56 6.76998 10.88C6.76998 10.2 7.00998 9.61998 7.48998 9.13998C7.96998 8.65998 8.54998 8.41998 9.22998 8.41998C9.62998 8.41998 10.01 8.51998 10.37 8.71998L12.71 6.43998C12.83 6.27998 12.99 6.19998 13.19 6.19998C13.39 6.19998 13.55 6.27998 13.67 6.43998ZM10.31 10.88C10.31 10.6 10.2 10.36 9.97998 10.16C9.75998 9.95998 9.50998 9.85998 9.22998 9.85998C8.94998 9.85998 8.69998 9.95998 8.47998 10.16C8.25998 10.36 8.14998 10.6 8.14998 10.88C8.14998 11.16 8.25998 11.41 8.47998 11.63C8.69998 11.85 8.94998 11.96 9.22998 11.96C9.50998 11.96 9.75998 11.85 9.97998 11.63C10.2 11.41 10.31 11.16 10.31 10.88Z" fill="#050B20"/>
</g>
<defs>
<clipPath id="clip0_9_78">
<rect width="18" height="18" fill="white" transform="matrix(1 0 0 -1 0.22998 18.02)"/>
</clipPath>
</defs>
</svg>
