<svg width="9" height="5" viewBox="0 0 9 5" fill="none" xmlns="http://www.w3.org/2000/svg">
<mask id="path-1-inside-1_5_3112" fill="white">
<path d="M0.800781 0.189941H8.80078V4.18994H0.800781V0.189941Z"/>
</mask>
<g clip-path="url(#paint0_diamond_5_3112_clip_path)" data-figma-skip-parse="true" mask="url(#path-1-inside-1_5_3112)"><g transform="matrix(0.004 0 0 0.004 4.80078 0.189941)"><rect x="0" y="0" width="2000" height="2000" fill="url(#paint0_diamond_5_3112)" opacity="1" shape-rendering="crispEdges"/><rect x="0" y="0" width="2000" height="2000" transform="scale(1 -1)" fill="url(#paint0_diamond_5_3112)" opacity="1" shape-rendering="crispEdges"/><rect x="0" y="0" width="2000" height="2000" transform="scale(-1 1)" fill="url(#paint0_diamond_5_3112)" opacity="1" shape-rendering="crispEdges"/><rect x="0" y="0" width="2000" height="2000" transform="scale(-1)" fill="url(#paint0_diamond_5_3112)" opacity="1" shape-rendering="crispEdges"/></g></g><path d="M0.800781 0.189941V-3.81006H-3.19922V0.189941H0.800781ZM8.80078 0.189941H12.8008V-3.81006H8.80078V0.189941ZM0.800781 4.18994H8.80078V-3.81006H0.800781V4.18994ZM4.80078 0.189941V4.18994H12.8008V0.189941H4.80078ZM4.80078 4.18994V0.189941H-3.19922V4.18994H4.80078Z" data-figma-gradient-fill="{&#34;type&#34;:&#34;GRADIENT_DIAMOND&#34;,&#34;stops&#34;:[{&#34;color&#34;:{&#34;r&#34;:1.0,&#34;g&#34;:1.0,&#34;b&#34;:1.0,&#34;a&#34;:1.0},&#34;position&#34;:0.99999988079071045},{&#34;color&#34;:{&#34;r&#34;:0.0,&#34;g&#34;:0.0,&#34;b&#34;:0.0,&#34;a&#34;:0.0},&#34;position&#34;:1.0}],&#34;stopsVar&#34;:[{&#34;color&#34;:{&#34;r&#34;:1.0,&#34;g&#34;:1.0,&#34;b&#34;:1.0,&#34;a&#34;:1.0},&#34;position&#34;:0.99999988079071045},{&#34;color&#34;:{&#34;r&#34;:0.0,&#34;g&#34;:0.0,&#34;b&#34;:0.0,&#34;a&#34;:0.0},&#34;position&#34;:1.0}],&#34;transform&#34;:{&#34;m00&#34;:8.0,&#34;m01&#34;:0.0,&#34;m02&#34;:0.800781250,&#34;m10&#34;:0.0,&#34;m11&#34;:8.0,&#34;m12&#34;:-3.810058593750},&#34;opacity&#34;:1.0,&#34;blendMode&#34;:&#34;NORMAL&#34;,&#34;visible&#34;:true}" mask="url(#path-1-inside-1_5_3112)"/>
<defs>
<clipPath id="paint0_diamond_5_3112_clip_path"><path d="M0.800781 0.189941V-3.81006H-3.19922V0.189941H0.800781ZM8.80078 0.189941H12.8008V-3.81006H8.80078V0.189941ZM0.800781 4.18994H8.80078V-3.81006H0.800781V4.18994ZM4.80078 0.189941V4.18994H12.8008V0.189941H4.80078ZM4.80078 4.18994V0.189941H-3.19922V4.18994H4.80078Z" mask="url(#path-1-inside-1_5_3112)"/></clipPath><linearGradient id="paint0_diamond_5_3112" x1="0" y1="0" x2="500" y2="500" gradientUnits="userSpaceOnUse">
<stop offset="1" stop-color="white"/>
<stop offset="1" stop-opacity="0"/>
</linearGradient>
</defs>
</svg>
