<svg width="12" height="13" viewBox="0 0 12 13" fill="none" xmlns="http://www.w3.org/2000/svg">
<rect width="12" height="13" fill="#F5F5F5"/>
<g id="details v1">
<rect width="1920" height="7036.19" transform="translate(-369 -6152)" fill="white"/>
<rect width="1920" height="7036.19" transform="translate(-369 -6152)" fill="white"/>
<g id="Section &#226;&#134;&#146; Main">
<g id="Button">
<rect x="-23.5" y="-12.1602" width="59" height="39" rx="19.5" fill="white"/>
<rect x="-23.5" y="-12.1602" width="59" height="39" rx="19.5" stroke="#E9E9E9"/>
<g id="Icon" clip-path="url(#clip0_8_42)">
<path id="Vector" d="M9.17749 6.93984L4.0218 12.0998C3.86194 12.2598 3.66877 12.3398 3.44229 12.3398C3.21581 12.3398 3.01598 12.2598 2.84279 12.0998C2.6696 11.9398 2.58301 11.7398 2.58301 11.4998C2.58301 11.2598 2.67626 11.0598 2.86277 10.8998L7.41896 6.33984L2.86277 1.77984C2.67626 1.61984 2.58301 1.41984 2.58301 1.17984C2.58301 0.939844 2.6696 0.739844 2.84279 0.579844C3.01598 0.419844 3.21581 0.339844 3.44229 0.339844C3.66877 0.339844 3.86194 0.419844 4.0218 0.579844L9.17749 5.73984C9.364 5.89984 9.45726 6.09984 9.45726 6.33984C9.45726 6.57984 9.364 6.77984 9.17749 6.93984Z" fill="#050B20"/>
</g>
</g>
</g>
</g>
<defs>
<clipPath id="clip0_8_42">
<rect width="11.96" height="12" fill="white" transform="matrix(1 0 0 -1 0.0200195 12.3398)"/>
</clipPath>
</defs>
</svg>
