<svg width="19" height="19" viewBox="0 0 19 19" fill="none" xmlns="http://www.w3.org/2000/svg">
<rect width="19" height="19" fill="#F5F5F5"/>
<g id="details v1">
<rect width="1920" height="7036.19" transform="translate(-1490 -352)" fill="white"/>
<rect width="1920" height="7036.19" transform="translate(-1490 -352)" fill="white"/>
<g id="Section &#226;&#134;&#146; Main">
<g id="Link">
<g id="Icon" clip-path="url(#clip0_8_42)">
<path id="Vector" d="M8.13988 18.3701C7.57988 18.3701 7.11988 18.1901 6.75988 17.8301L1.47988 12.5501C1.07988 12.1501 0.879883 11.6801 0.879883 11.1401C0.879883 10.6001 1.07988 10.1301 1.47988 9.73012L8.55988 2.65012C9.31988 1.89012 10.2399 1.51012 11.3199 1.51012H15.8199C16.3799 1.51012 16.8499 1.71012 17.2299 2.11012C17.6099 2.51012 17.7999 2.97012 17.7999 3.49012V7.99012C17.7999 9.07012 17.4199 9.97012 16.6599 10.6901L9.51988 17.8301C9.15988 18.1901 8.69988 18.3701 8.13988 18.3701ZM11.3199 2.83012C10.5999 2.83012 9.99988 3.09012 9.51988 3.61012L2.43988 10.6901C2.27988 10.8101 2.19988 10.9601 2.19988 11.1401C2.19988 11.3201 2.27988 11.4901 2.43988 11.6501L7.65988 16.8701C7.77988 17.0301 7.93988 17.1101 8.13988 17.1101C8.33988 17.1101 8.49988 17.0301 8.61988 16.8701L15.6999 9.79012C16.2199 9.31012 16.4799 8.71012 16.4799 7.99012V3.49012C16.4799 3.33012 16.4099 3.18012 16.2699 3.04012C16.1299 2.90012 15.9799 2.83012 15.8199 2.83012H11.3199ZM12.9999 8.23012C12.4799 8.23012 12.0199 8.03012 11.6199 7.63012C11.2199 7.23012 11.0199 6.76012 11.0199 6.22012C11.0199 5.68012 11.2199 5.22012 11.6199 4.84012C12.0199 4.46012 12.4899 4.27012 13.0299 4.27012C13.5699 4.27012 14.0299 4.46012 14.4099 4.84012C14.7899 5.22012 14.9799 5.68012 14.9799 6.22012C14.9799 6.76012 14.7899 7.23012 14.4099 7.63012C14.0299 8.03012 13.5599 8.23012 12.9999 8.23012ZM12.9999 5.59012C12.8399 5.59012 12.6899 5.65012 12.5499 5.77012C12.4099 5.89012 12.3399 6.04012 12.3399 6.22012C12.3399 6.40012 12.4099 6.56012 12.5499 6.70012C12.6899 6.84012 12.8499 6.91012 13.0299 6.91012C13.2099 6.91012 13.3599 6.84012 13.4799 6.70012C13.5999 6.56012 13.6599 6.40012 13.6599 6.22012C13.6599 6.04012 13.5999 5.89012 13.4799 5.77012C13.3599 5.65012 13.1999 5.59012 12.9999 5.59012Z" fill="#050B20"/>
</g>
</g>
</g>
</g>
<defs>
<clipPath id="clip0_8_42">
<rect width="18" height="18" fill="white" transform="matrix(1 0 0 -1 0.339844 18.9702)"/>
</clipPath>
</defs>
</svg>
