<svg width="19" height="18" viewBox="0 0 19 18" fill="none" xmlns="http://www.w3.org/2000/svg">
<rect width="19" height="18" fill="#F5F5F5"/>
<g id="details v1">
<rect width="1920" height="7036.19" transform="translate(-735 -1055)" fill="white"/>
<rect width="1920" height="7036.19" transform="translate(-735 -1055)" fill="white"/>
<g id="Section &#226;&#134;&#146; Main">
<g id="List">
<g id="Item" clip-path="url(#clip0_8_42)">
<g id="Icon">
<path id="Vector" d="M9.5001 10.14C6.7801 10.14 4.7001 10.76 3.2601 12C1.8201 13.24 1.1001 15.02 1.1001 17.34C1.1001 17.54 1.1701 17.7 1.3101 17.82C1.4501 17.94 1.6001 18 1.7601 18H17.2401C17.4001 18 17.5501 17.94 17.6901 17.82C17.8301 17.7 17.9001 17.54 17.9001 17.34C17.9001 15.02 17.1801 13.24 15.7401 12C14.3001 10.76 12.2201 10.14 9.5001 10.14ZM2.4801 16.68C2.7201 13.2 5.0601 11.46 9.5001 11.46C13.9401 11.46 16.2801 13.2 16.5201 16.68H2.4801ZM9.5001 0C8.7001 0 7.9601 0.190001 7.2801 0.57C6.6001 0.950001 6.0701 1.48 5.6901 2.16C5.3101 2.84 5.1201 3.6 5.1201 4.44C5.1201 5.28 5.3201 6.07 5.7201 6.81C6.1201 7.55 6.6501 8.13 7.3101 8.55C7.9701 8.97 8.7001 9.18 9.5001 9.18C10.3001 9.18 11.0301 8.97 11.6901 8.55C12.3501 8.13 12.8801 7.55 13.2801 6.81C13.6801 6.07 13.8801 5.28 13.8801 4.44C13.8801 3.6 13.6901 2.84 13.3101 2.16C12.9301 1.48 12.4001 0.950001 11.7201 0.57C11.0401 0.190001 10.3001 0 9.5001 0ZM9.5001 7.86C8.6601 7.86 7.9401 7.53 7.3401 6.87C6.7401 6.21 6.4401 5.41 6.4401 4.47C6.4401 3.53 6.7301 2.77 7.3101 2.19C7.8901 1.61 8.6201 1.32 9.5001 1.32C10.3801 1.32 11.1101 1.62 11.6901 2.22C12.2701 2.82 12.5601 3.58 12.5601 4.5C12.5601 5.42 12.2601 6.21 11.6601 6.87C11.0601 7.53 10.3401 7.86 9.5001 7.86Z" fill="#050B20"/>
</g>
</g>
</g>
</g>
</g>
<defs>
<clipPath id="clip0_8_42">
<rect width="455.5" height="27.75" fill="white" transform="translate(0.5)"/>
</clipPath>
</defs>
</svg>
