<svg width="19" height="19" viewBox="0 0 19 19" fill="none" xmlns="http://www.w3.org/2000/svg">
<rect width="19" height="19" fill="#F5F5F5"/>
<g id="list v1">
<rect width="1920" height="2919.53" transform="translate(-408 -869)" fill="white"/>
<rect width="1920" height="2919.53" transform="translate(-408 -869)" fill="white"/>
<g id="Section">
<g id="Article">
<g clip-path="url(#clip0_8_42)">
<rect x="-148" y="-299.5" width="327.5" height="432.81" rx="16" fill="white"/>
<g id="Border">
<mask id="path-2-inside-1_8_42" fill="white">
<path d="M-148 -81.1699H179.5V117.31C179.5 126.147 172.337 133.31 163.5 133.31H-132C-140.837 133.31 -148 126.147 -148 117.31V-81.1699Z"/>
</mask>
<path d="M-148 -81.1699H179.5H-148ZM180.5 117.31C180.5 126.699 172.889 134.31 163.5 134.31H-132C-141.389 134.31 -149 126.699 -149 117.31H-147C-147 125.594 -140.284 132.31 -132 132.31H163.5C171.784 132.31 178.5 125.594 178.5 117.31H180.5ZM-132 134.31C-141.389 134.31 -149 126.699 -149 117.31V-81.1699H-147V117.31C-147 125.594 -140.284 132.31 -132 132.31V134.31ZM180.5 -81.1699V117.31C180.5 126.699 172.889 134.31 163.5 134.31V132.31C171.784 132.31 178.5 125.594 178.5 117.31V-81.1699H180.5Z" fill="#E9E9E9" mask="url(#path-2-inside-1_8_42)"/>
<g id="HorizontalBorder">
<mask id="path-4-inside-2_8_42" fill="white">
<path d="M-117 -15.98H148.5V53.31H-117V-15.98Z"/>
</mask>
<path d="M-117 -14.98H148.5V-16.98H-117V-14.98Z" fill="#E9E9E9" mask="url(#path-4-inside-2_8_42)"/>
<g id="Icon" clip-path="url(#clip1_8_42)">
<path id="Vector" d="M10.9003 3.38002C10.9003 3.22002 10.8503 3.09002 10.7503 2.99002C10.6503 2.89002 10.5203 2.84002 10.3603 2.84002H4.72025C4.56025 2.84002 4.43025 2.89002 4.33025 2.99002C4.23025 3.09002 4.18025 3.22002 4.18025 3.38002V7.88002C4.18025 8.04002 4.23025 8.18002 4.33025 8.30002C4.43025 8.42002 4.56025 8.48002 4.72025 8.48002H10.3603C10.5203 8.48002 10.6503 8.42002 10.7503 8.30002C10.8503 8.18002 10.9003 8.04002 10.9003 7.88002V3.38002ZM9.76025 7.34002H5.26025V3.98002H9.76025V7.34002ZM17.3803 3.98002L15.1003 2.90002C14.9803 2.82002 14.8403 2.80002 14.6803 2.84002C14.5203 2.88002 14.4103 2.97002 14.3503 3.11002C14.2903 3.25002 14.2803 3.40002 14.3203 3.56002C14.3603 3.72002 14.4603 3.82002 14.6203 3.86002L15.4603 4.34002L15.4003 4.52002C15.4003 4.88002 15.5103 5.20002 15.7303 5.48002C15.9503 5.76002 16.2203 5.96002 16.5403 6.08002V12.92C16.5403 13.08 16.4803 13.22 16.3603 13.34C16.2403 13.46 16.1103 13.52 15.9703 13.52C15.8303 13.52 15.7003 13.46 15.5803 13.34C15.4603 13.22 15.4003 13.08 15.4003 12.92V8.42002C15.4003 7.78002 15.1703 7.20002 14.7103 6.68002C14.2503 6.16002 13.7403 5.84002 13.1803 5.72002V2.24002C13.1803 1.64002 12.9603 1.12002 12.5203 0.680019C12.0803 0.240021 11.5603 0.0200195 10.9603 0.0200195H4.18025C3.58025 0.0200195 3.05025 0.240021 2.59025 0.680019C2.13025 1.12002 1.90025 1.64002 1.90025 2.24002V14.84L1.12025 15.26C0.880254 15.38 0.760254 15.54 0.760254 15.74V17.42C0.760254 17.58 0.820254 17.72 0.940254 17.84C1.06025 17.96 1.20025 18.02 1.36025 18.02H13.7203C13.8803 18.02 14.0103 17.96 14.1103 17.84C14.2103 17.72 14.2603 17.58 14.2603 17.42V15.74C14.2603 15.54 14.1603 15.38 13.9603 15.26L13.1803 14.84V6.86002C13.4603 6.98002 13.7103 7.19002 13.9303 7.49002C14.1503 7.79002 14.2603 8.10002 14.2603 8.42002V12.92C14.2603 13.4 14.4303 13.81 14.7703 14.15C15.1103 14.49 15.5103 14.66 15.9703 14.66C16.4303 14.66 16.8303 14.49 17.1703 14.15C17.5103 13.81 17.6803 13.4 17.6803 12.92V4.52002C17.6803 4.28002 17.5803 4.10002 17.3803 3.98002ZM13.1803 16.88H1.90025V16.1L2.74025 15.68C2.94025 15.6 3.04025 15.44 3.04025 15.2V2.24002C3.04025 1.96002 3.15025 1.71002 3.37025 1.49002C3.59025 1.27002 3.86025 1.16002 4.18025 1.16002H10.9603C11.2403 1.16002 11.4903 1.27002 11.7103 1.49002C11.9303 1.71002 12.0403 1.96002 12.0403 2.24002V15.2C12.0403 15.44 12.1403 15.6 12.3403 15.68L13.1803 16.1V16.88Z" fill="#050B20"/>
</g>
</g>
</g>
</g>
</g>
</g>
<g id="Background">
<rect width="1920" height="460" transform="translate(-408 1491.44)" fill="#050B20"/>
</g>
</g>
<defs>
<clipPath id="clip0_8_42">
<rect x="-148" y="-299.5" width="327.5" height="432.81" rx="16" fill="white"/>
</clipPath>
<clipPath id="clip1_8_42">
<rect width="18" height="18" fill="white" transform="matrix(1 0 0 -1 0.220215 18.02)"/>
</clipPath>
</defs>
</svg>
