<svg width="19" height="19" viewBox="0 0 19 19" fill="none" xmlns="http://www.w3.org/2000/svg">
<rect width="19" height="19" fill="#F5F5F5"/>
<g id="details v1">
<rect width="1920" height="7036.19" transform="translate(-681 -346)" fill="white"/>
<rect width="1920" height="7036.19" transform="translate(-681 -346)" fill="white"/>
<g id="Section &#226;&#134;&#146; Main">
<g id="Background">
<rect x="-19.4199" y="-8.75" width="107.92" height="39.75" rx="19.875" fill="#E9F2FF"/>
<g id="Icon" clip-path="url(#clip0_8_42)">
<path id="Vector" d="M11.2601 4.33022C11.2601 4.17022 11.2101 4.04022 11.1101 3.94022C11.0101 3.84021 10.8801 3.79022 10.7201 3.79022H5.08012C4.92012 3.79022 4.79012 3.84021 4.69012 3.94022C4.59012 4.04022 4.54012 4.17022 4.54012 4.33022V8.83022C4.54012 8.99022 4.59012 9.13021 4.69012 9.25022C4.79012 9.37022 4.92012 9.43021 5.08012 9.43021H10.7201C10.8801 9.43021 11.0101 9.37022 11.1101 9.25022C11.2101 9.13021 11.2601 8.99022 11.2601 8.83022V4.33022ZM10.1201 8.29022H5.62012V4.93021H10.1201V8.29022ZM17.7401 4.93021L15.4601 3.85021C15.3401 3.77022 15.2001 3.75022 15.0401 3.79022C14.8801 3.83022 14.7701 3.92022 14.7101 4.06021C14.6501 4.20022 14.6401 4.35021 14.6801 4.51021C14.7201 4.67022 14.8201 4.77022 14.9801 4.81021L15.8201 5.29022L15.7601 5.47021C15.7601 5.83022 15.8701 6.15022 16.0901 6.43021C16.3101 6.71022 16.5801 6.91022 16.9001 7.03022V13.8702C16.9001 14.0302 16.8401 14.1702 16.7201 14.2902C16.6001 14.4102 16.4701 14.4702 16.3301 14.4702C16.1901 14.4702 16.0601 14.4102 15.9401 14.2902C15.8201 14.1702 15.7601 14.0302 15.7601 13.8702V9.37022C15.7601 8.73022 15.5301 8.15022 15.0701 7.63021C14.6101 7.11022 14.1001 6.79022 13.5401 6.67021V3.19022C13.5401 2.59022 13.3201 2.07022 12.8801 1.63021C12.4401 1.19022 11.9201 0.970215 11.3201 0.970215H4.54012C3.94012 0.970215 3.41012 1.19022 2.95012 1.63021C2.49012 2.07022 2.26012 2.59022 2.26012 3.19022V15.7902L1.48012 16.2102C1.24012 16.3302 1.12012 16.4902 1.12012 16.6902V18.3702C1.12012 18.5302 1.18012 18.6702 1.30012 18.7902C1.42012 18.9102 1.56012 18.9702 1.72012 18.9702H14.0801C14.2401 18.9702 14.3701 18.9102 14.4701 18.7902C14.5701 18.6702 14.6201 18.5302 14.6201 18.3702V16.6902C14.6201 16.4902 14.5201 16.3302 14.3201 16.2102L13.5401 15.7902V7.81021C13.8201 7.93021 14.0701 8.14021 14.2901 8.44022C14.5101 8.74022 14.6201 9.05021 14.6201 9.37022V13.8702C14.6201 14.3502 14.7901 14.7602 15.1301 15.1002C15.4701 15.4402 15.8701 15.6102 16.3301 15.6102C16.7901 15.6102 17.1901 15.4402 17.5301 15.1002C17.8701 14.7602 18.0401 14.3502 18.0401 13.8702V5.47021C18.0401 5.23022 17.9401 5.05021 17.7401 4.93021ZM13.5401 17.8302H2.26012V17.0502L3.10012 16.6302C3.30012 16.5502 3.40012 16.3902 3.40012 16.1502V3.19022C3.40012 2.91022 3.51012 2.66022 3.73012 2.44022C3.95012 2.22021 4.22012 2.11022 4.54012 2.11022H11.3201C11.6001 2.11022 11.8501 2.22021 12.0701 2.44022C12.2901 2.66022 12.4001 2.91022 12.4001 3.19022V16.1502C12.4001 16.3902 12.5001 16.5502 12.7001 16.6302L13.5401 17.0502V17.8302Z" fill="#405FF2"/>
</g>
</g>
</g>
</g>
<defs>
<clipPath id="clip0_8_42">
<rect width="18" height="18" fill="white" transform="matrix(1 0 0 -1 0.580078 18.9702)"/>
</clipPath>
</defs>
</svg>
