<svg width="37" height="27" viewBox="0 0 37 27" fill="none" xmlns="http://www.w3.org/2000/svg">
<path d="M9.1 26.6101C6.76667 26.6101 4.66667 25.6768 2.8 23.8101C0.933334 21.8768 0 19.0434 0 15.3101C0 11.0434 1.13333 7.57672 3.4 4.91006C5.73333 2.17673 9.03333 0.810059 13.3 0.810059C14.8333 0.810059 16.0333 0.910057 16.9 1.11005V5.71006C15.9667 5.57672 14.7667 5.51006 13.3 5.51006C11.0333 5.51006 9.2 6.27672 7.8 7.81006C6.46667 9.14339 5.7 10.9101 5.5 13.1101C6.36667 12.0434 7.76667 11.5101 9.7 11.5101C11.7 11.5101 13.4 12.2101 14.8 13.6101C16.2 14.9434 16.9 16.7101 16.9 18.9101C16.9 21.1768 16.1667 23.0434 14.7 24.5101C13.2333 25.9101 11.3667 26.6101 9.1 26.6101ZM29 26.6101C26.6667 26.6101 24.5667 25.6768 22.7 23.8101C20.8333 21.8768 19.9 19.0434 19.9 15.3101C19.9 11.0434 21.0333 7.57672 23.3 4.91006C25.6333 2.17673 28.9333 0.810059 33.2 0.810059C34.7333 0.810059 35.9333 0.910057 36.8 1.11005V5.71006C35.8667 5.57672 34.6667 5.51006 33.2 5.51006C30.9333 5.51006 29.1 6.27672 27.7 7.81006C26.3667 9.14339 25.6 10.9101 25.4 13.1101C26.2667 12.0434 27.6667 11.5101 29.6 11.5101C31.6 11.5101 33.3 12.2101 34.7 13.6101C36.1 14.9434 36.8 16.7101 36.8 18.9101C36.8 21.1768 36.0667 23.0434 34.6 24.5101C33.1333 25.9101 31.2667 26.6101 29 26.6101Z" fill="#050B20"/>
</svg>
