<svg width="27" height="27" viewBox="0 0 27 27" fill="none" xmlns="http://www.w3.org/2000/svg">
<rect width="27" height="27" fill="#F5F5F5"/>
<g id="Contact Us">
<rect width="1920" height="2848.09" transform="translate(-1150 -1308)" fill="white"/>
<rect width="1920" height="2848.09" transform="translate(-1150 -1308)" fill="white"/>
<g id="Section ">
<g id="Border">
<rect x="-39.6992" y="-361" width="549.19" height="551.5" rx="15.5" stroke="#E1E1E1"/>
<g id="phone-1.svg" clip-path="url(#clip0_8_42)">
<g id="phone-1.svg fill" clip-path="url(#clip1_8_42)">
<g id="phone-1.svg_2">
<path id="Vector" d="M24.3139 11.4586C23.9055 11.4586 23.5545 11.152 23.5079 10.7371C23.0962 7.07978 20.2546 4.24144 16.5973 3.83519C16.152 3.78536 15.8303 3.38453 15.8801 2.93819C15.9289 2.49294 16.3286 2.16036 16.7771 2.22102C21.1939 2.71069 24.6259 6.13836 25.122 10.5551C25.173 11.0015 24.8512 11.4033 24.406 11.4532C24.3756 11.4564 24.3442 11.4586 24.3139 11.4586Z" fill="#E1E1E1"/>
<path id="Vector_2" d="M20.476 11.4703C20.0947 11.4703 19.7556 11.2016 19.6798 10.8138C19.3678 9.21047 18.1317 7.97439 16.5305 7.66347C16.0896 7.57789 15.8025 7.15214 15.8881 6.71122C15.9737 6.2703 16.4103 5.98322 16.8403 6.0688C19.0948 6.50647 20.8357 8.24631 21.2744 10.5018C21.36 10.9438 21.0729 11.3695 20.6331 11.4551C20.58 11.4649 20.528 11.4703 20.476 11.4703Z" fill="#E1E1E1"/>
<path id="Vector_3" fill-rule="evenodd" clip-rule="evenodd" d="M8.90608 18.2801C14.0118 23.387 17.4113 24.726 19.5585 24.726C20.618 24.726 21.3742 24.3999 21.8779 24.038C21.9007 24.025 24.232 22.5994 24.6404 20.4414C24.8333 19.4285 24.5516 18.4264 23.8279 17.5424C20.8466 13.923 19.3278 14.261 17.6508 15.0767C16.6205 15.5815 15.8069 15.9737 13.5092 13.6781C11.2127 11.3807 11.6089 10.567 12.1104 9.53697C12.9272 7.85997 13.2633 6.34077 9.64275 3.35727C8.76092 2.63686 7.76533 2.35519 6.7535 2.54477C4.62692 2.94236 3.19475 5.23577 3.19475 5.23577C2.05508 6.83586 1.28159 10.6567 8.90608 18.2801ZM7.085 4.13511C7.18033 4.11994 7.27458 4.11127 7.36775 4.11127C7.79242 4.11127 8.20192 4.27702 8.61033 4.61286C11.5299 7.01783 11.1605 7.77618 10.6492 8.82592C9.88109 10.4043 9.47917 11.9448 12.3598 14.8275C15.2436 17.7103 16.7852 17.3084 18.3614 16.5381L18.364 16.5368C19.4125 16.0272 20.1705 15.6588 22.5723 18.5748C22.9829 19.0753 23.14 19.5758 23.0512 20.1034C22.8464 21.3167 21.4359 22.4033 21.0091 22.6676C19.4805 23.7575 15.8004 22.8767 10.0544 17.1318C4.31058 11.3869 3.42875 7.70686 4.55758 6.11977C4.78292 5.75252 5.87383 4.33986 7.085 4.13511Z" fill="#050B20"/>
</g>
</g>
</g>
</g>
</g>
</g>
<defs>
<clipPath id="clip0_8_42">
<rect width="26" height="26" fill="white" transform="translate(0.800781 0.469971)"/>
</clipPath>
<clipPath id="clip1_8_42">
<rect width="26" height="26" fill="white" transform="translate(0.800781 0.469971)"/>
</clipPath>
</defs>
</svg>
