<svg width="19" height="19" viewBox="0 0 19 19" fill="none" xmlns="http://www.w3.org/2000/svg">
<rect width="19" height="19" fill="#F5F5F5"/>
<g id="details v1">
<rect width="1920" height="7036.19" transform="translate(-1481 -1199)" fill="white"/>
<rect width="1920" height="7036.19" transform="translate(-1481 -1199)" fill="white"/>
<g id="Section &#226;&#134;&#146; Main">
<g id="Border">
<rect x="-219.5" y="-201.5" width="398" height="461" rx="15.5" stroke="#E9E9E9"/>
<g id="Overlay">
<rect x="-10.47" y="-10.25" width="40" height="40" rx="20" fill="#405FF2" fill-opacity="0.1"/>
<g id="SVG">
<path id="Vector" d="M16.8078 8.35745C16.5251 8.35745 16.2821 8.14523 16.2498 7.85798C15.9648 5.32598 13.9976 3.36098 11.4656 3.07973C11.1573 3.04523 10.9346 2.76773 10.9691 2.45873C11.0028 2.15048 11.2796 1.92023 11.5901 1.96223C14.6478 2.30123 17.0238 4.67423 17.3673 7.73198C17.4026 8.04098 17.1798 8.3192 16.8716 8.3537C16.8506 8.35595 16.8288 8.35745 16.8078 8.35745Z" fill="#405FF2"/>
<path id="Vector_2" d="M14.1522 8.36567C13.8882 8.36567 13.6535 8.17967 13.601 7.91117C13.385 6.80117 12.5292 5.94542 11.4207 5.73017C11.1155 5.67092 10.9167 5.37617 10.976 5.07092C11.0352 4.76567 11.3375 4.56692 11.6352 4.62617C13.196 4.92917 14.4012 6.13367 14.705 7.69517C14.7642 8.00117 14.5655 8.29592 14.261 8.35517C14.2242 8.36192 14.1882 8.36567 14.1522 8.36567Z" fill="#405FF2"/>
<path id="Vector_3" fill-rule="evenodd" clip-rule="evenodd" d="M6.14177 13.0802C9.67655 16.6157 12.03 17.5427 13.5165 17.5427C14.25 17.5427 14.7735 17.317 15.1223 17.0665C15.138 17.0575 16.752 16.0705 17.0348 14.5765C17.1683 13.8752 16.9733 13.1815 16.4723 12.5695C14.4083 10.0637 13.3568 10.2977 12.1958 10.8625C11.4825 11.212 10.9193 11.4835 9.32855 9.89425C7.7387 8.30373 8.01296 7.7404 8.36015 7.02727C8.92565 5.86627 9.1583 4.81451 6.65177 2.74901C6.04127 2.25026 5.35202 2.05526 4.65152 2.18651C3.17927 2.46176 2.18777 4.04951 2.18777 4.04951C1.39876 5.15726 0.863267 7.80253 6.14177 13.0802ZM4.88102 3.28751C4.94702 3.27701 5.01227 3.27101 5.07677 3.27101C5.37077 3.27101 5.65427 3.38576 5.93702 3.61826C7.95825 5.28325 7.70252 5.80826 7.34852 6.535C6.81677 7.62775 6.53852 8.69424 8.5328 10.69C10.5293 12.6857 11.5965 12.4075 12.6878 11.8742L12.6896 11.8733C13.4154 11.5205 13.9402 11.2655 15.603 13.2842C15.8873 13.6307 15.996 13.9772 15.9345 14.3425C15.7928 15.1825 14.8163 15.9347 14.5208 16.1177C13.4625 16.8722 10.9148 16.2625 6.93677 12.2852C2.96027 8.30799 2.34977 5.76026 3.13127 4.66151C3.28727 4.40726 4.04252 3.42926 4.88102 3.28751Z" fill="#405FF2"/>
</g>
</g>
</g>
</g>
</g>
</svg>
