<svg width="103" height="40" viewBox="0 0 103 40" fill="none" xmlns="http://www.w3.org/2000/svg">
<rect y="0.25" width="102.47" height="39.75" rx="12" fill="white"/>
<g clip-path="url(#clip0_9_691)">
<path d="M31.2767 18.63L27.7633 16.08C27.6122 15.9666 27.4611 15.9477 27.31 16.0233C27.1589 16.0989 27.0833 16.2311 27.0833 16.42V21.52C27.0833 21.7089 27.1589 21.8411 27.31 21.9166C27.3856 21.9544 27.4611 21.9733 27.5367 21.9733C27.6122 21.9733 27.6878 21.9355 27.7633 21.86L31.2767 19.31C31.4278 19.2344 31.5033 19.1211 31.5033 18.97C31.5033 18.8189 31.4278 18.7055 31.2767 18.63ZM28.5 10.47C26.9511 10.47 25.525 10.8477 24.2217 11.6033C22.9183 12.3589 21.8889 13.3883 21.1333 14.6916C20.3778 15.995 20 17.4211 20 18.97C20 20.5189 20.3778 21.945 21.1333 23.2483C21.8889 24.5516 22.9183 25.5811 24.2217 26.3366C25.525 27.0922 26.9511 27.47 28.5 27.47C30.0489 27.47 31.475 27.0922 32.7783 26.3366C34.0817 25.5811 35.1111 24.5516 35.8667 23.2483C36.6222 21.945 37 20.5189 37 18.97C37 17.4211 36.6222 15.995 35.8667 14.6916C35.1111 13.3883 34.0817 12.3589 32.7783 11.6033C31.475 10.8477 30.0489 10.47 28.5 10.47ZM28.5 26.0533C27.2156 26.0533 26.035 25.7322 24.9583 25.09C23.8817 24.4477 23.0222 23.5883 22.38 22.5116C21.7378 21.435 21.4167 20.2544 21.4167 18.97C21.4167 17.6855 21.7378 16.505 22.38 15.4283C23.0222 14.3516 23.8817 13.4922 24.9583 12.85C26.035 12.2077 27.2156 11.8866 28.5 11.8866C29.7844 11.8866 30.965 12.2077 32.0417 12.85C33.1183 13.4922 33.9778 14.3516 34.62 15.4283C35.2622 16.505 35.5833 17.6855 35.5833 18.97C35.5833 20.2544 35.2622 21.435 34.62 22.5116C33.9778 23.5883 33.1183 24.4477 32.0417 25.09C30.965 25.7322 29.7844 26.0533 28.5 26.0533Z" fill="#050B20"/>
</g>
<path d="M46.275 24.375L42.33 13.875H43.695L47.01 23.04L50.355 13.875H51.69L47.745 24.375H46.275ZM53.8195 15.285C53.5695 15.285 53.3595 15.205 53.1895 15.045C53.0295 14.875 52.9495 14.665 52.9495 14.415C52.9495 14.175 53.0295 13.975 53.1895 13.815C53.3595 13.655 53.5695 13.575 53.8195 13.575C54.0595 13.575 54.2645 13.655 54.4345 13.815C54.6045 13.975 54.6895 14.175 54.6895 14.415C54.6895 14.665 54.6045 14.875 54.4345 15.045C54.2645 15.205 54.0595 15.285 53.8195 15.285ZM53.1895 24.375V16.935H54.4495V24.375H53.1895ZM60.0184 24.555C59.2784 24.555 58.6284 24.385 58.0684 24.045C57.5184 23.705 57.0884 23.24 56.7784 22.65C56.4784 22.06 56.3284 21.39 56.3284 20.64C56.3284 19.89 56.4834 19.225 56.7934 18.645C57.1034 18.055 57.5334 17.595 58.0834 17.265C58.6334 16.925 59.2834 16.755 60.0334 16.755C60.6434 16.755 61.1834 16.88 61.6534 17.13C62.1234 17.38 62.4884 17.73 62.7484 18.18V13.575H64.0084V24.375H62.8684L62.7484 23.145C62.5084 23.505 62.1634 23.83 61.7134 24.12C61.2634 24.41 60.6984 24.555 60.0184 24.555ZM60.1534 23.46C60.6534 23.46 61.0934 23.345 61.4734 23.115C61.8634 22.875 62.1634 22.545 62.3734 22.125C62.5934 21.705 62.7034 21.215 62.7034 20.655C62.7034 20.095 62.5934 19.605 62.3734 19.185C62.1634 18.765 61.8634 18.44 61.4734 18.21C61.0934 17.97 60.6534 17.85 60.1534 17.85C59.6634 17.85 59.2234 17.97 58.8334 18.21C58.4534 18.44 58.1534 18.765 57.9334 19.185C57.7234 19.605 57.6184 20.095 57.6184 20.655C57.6184 21.215 57.7234 21.705 57.9334 22.125C58.1534 22.545 58.4534 22.875 58.8334 23.115C59.2234 23.345 59.6634 23.46 60.1534 23.46ZM69.4073 24.555C68.6973 24.555 68.0673 24.395 67.5173 24.075C66.9673 23.745 66.5323 23.29 66.2123 22.71C65.9023 22.13 65.7473 21.445 65.7473 20.655C65.7473 19.875 65.9023 19.195 66.2123 18.615C66.5223 18.025 66.9523 17.57 67.5023 17.25C68.0623 16.92 68.7073 16.755 69.4373 16.755C70.1573 16.755 70.7773 16.92 71.2973 17.25C71.8273 17.57 72.2323 17.995 72.5123 18.525C72.7923 19.055 72.9323 19.625 72.9323 20.235C72.9323 20.345 72.9273 20.455 72.9173 20.565C72.9173 20.675 72.9173 20.8 72.9173 20.94H66.9923C67.0223 21.51 67.1523 21.985 67.3823 22.365C67.6223 22.735 67.9173 23.015 68.2673 23.205C68.6273 23.395 69.0073 23.49 69.4073 23.49C69.9273 23.49 70.3623 23.37 70.7123 23.13C71.0623 22.89 71.3173 22.565 71.4773 22.155H72.7223C72.5223 22.845 72.1373 23.42 71.5673 23.88C71.0073 24.33 70.2873 24.555 69.4073 24.555ZM69.4073 17.82C68.8073 17.82 68.2723 18.005 67.8023 18.375C67.3423 18.735 67.0773 19.265 67.0073 19.965H71.6873C71.6573 19.295 71.4273 18.77 70.9973 18.39C70.5673 18.01 70.0373 17.82 69.4073 17.82ZM77.9924 24.555C77.2924 24.555 76.6624 24.395 76.1024 24.075C75.5424 23.755 75.0974 23.305 74.7674 22.725C74.4474 22.135 74.2874 21.445 74.2874 20.655C74.2874 19.865 74.4524 19.18 74.7824 18.6C75.1124 18.01 75.5574 17.555 76.1174 17.235C76.6874 16.915 77.3224 16.755 78.0224 16.755C78.7224 16.755 79.3524 16.915 79.9124 17.235C80.4724 17.555 80.9124 18.01 81.2324 18.6C81.5624 19.18 81.7274 19.865 81.7274 20.655C81.7274 21.445 81.5624 22.135 81.2324 22.725C80.9024 23.305 80.4524 23.755 79.8824 24.075C79.3224 24.395 78.6924 24.555 77.9924 24.555ZM77.9924 23.475C78.4224 23.475 78.8224 23.37 79.1924 23.16C79.5624 22.95 79.8624 22.635 80.0924 22.215C80.3224 21.795 80.4374 21.275 80.4374 20.655C80.4374 20.035 80.3224 19.515 80.0924 19.095C79.8724 18.675 79.5774 18.36 79.2074 18.15C78.8374 17.94 78.4424 17.835 78.0224 17.835C77.5924 17.835 77.1924 17.94 76.8224 18.15C76.4524 18.36 76.1524 18.675 75.9224 19.095C75.6924 19.515 75.5774 20.035 75.5774 20.655C75.5774 21.275 75.6924 21.795 75.9224 22.215C76.1524 22.635 76.4474 22.95 76.8074 23.16C77.1774 23.37 77.5724 23.475 77.9924 23.475Z" fill="#050B20"/>
<defs>
<clipPath id="clip0_9_691">
<rect width="17" height="17" fill="white" transform="matrix(1 0 0 -1 20 27.47)"/>
</clipPath>
</defs>
</svg>
