<svg width="23" height="25" viewBox="0 0 23 25" fill="none" xmlns="http://www.w3.org/2000/svg">
<path d="M20.5026 9.91237L4.31534 0.699524C2.59826 -0.280753 0.847656 0.791325 0.847656 2.71915V21.9519C0.847656 23.5852 1.91095 24.33 2.89921 24.33C3.3646 24.33 3.83877 24.1831 4.30975 23.8965L20.5697 13.9437C21.3871 13.4416 21.8461 12.6984 21.8318 11.9041C21.8182 11.109 21.3344 10.3826 20.5026 9.91237ZM19.4801 12.1659L3.22091 22.1164C3.11155 22.1834 3.02534 22.2169 2.96626 22.2337C2.9503 22.1746 2.93433 22.0836 2.93433 21.9519V2.71995C2.93433 2.52198 2.97026 2.42219 2.97026 2.39745C3.03412 2.40144 3.14587 2.43417 3.28637 2.514L19.4713 11.7269C19.6709 11.841 19.7299 11.94 19.7491 11.9185C19.7387 11.9456 19.6709 12.047 19.4801 12.1659Z" fill="#050B20"/>
</svg>
