<svg width="13" height="13" viewBox="0 0 13 13" fill="none" xmlns="http://www.w3.org/2000/svg">
<g clip-path="url(#clip0_9_3027)">
<path d="M3.06006 6.60986C3.06006 6.36986 3.15339 6.16986 3.34006 6.00986L8.50006 0.849864C8.66006 0.689863 8.85339 0.609863 9.08006 0.609863C9.30673 0.609863 9.50673 0.689863 9.68006 0.849864C9.85339 1.00986 9.94006 1.20986 9.94006 1.44986C9.94006 1.68986 9.84672 1.88986 9.66006 2.04986L5.10006 6.60986L9.66006 11.1699C9.82006 11.3299 9.90006 11.5299 9.90006 11.7699C9.90006 12.0099 9.82006 12.2099 9.66006 12.3699C9.50006 12.5299 9.30673 12.6099 9.08006 12.6099C8.85339 12.6099 8.66006 12.5299 8.50006 12.3699L3.34006 7.20986C3.15339 7.04986 3.06006 6.84986 3.06006 6.60986Z" fill="#050B20"/>
</g>
<defs>
<clipPath id="clip0_9_3027">
<rect width="12" height="12" fill="white" transform="matrix(1 0 0 -1 0.5 12.6099)"/>
</clipPath>
</defs>
</svg>
