<svg width="60" height="41" viewBox="0 0 60 41" fill="none" xmlns="http://www.w3.org/2000/svg">
<rect x="0.5" y="0.839844" width="59" height="39" rx="19.5" fill="white"/>
<rect x="0.5" y="0.839844" width="59" height="39" rx="19.5" stroke="#E9E9E9"/>
<g clip-path="url(#clip0_9_1282)">
<path d="M26.5601 19.3398C26.5601 19.0998 26.6534 18.8998 26.8401 18.7398L32.0001 13.5798C32.1601 13.4198 32.3534 13.3398 32.5801 13.3398C32.8067 13.3398 33.0067 13.4198 33.1801 13.5798C33.3534 13.7398 33.4401 13.9398 33.4401 14.1798C33.4401 14.4198 33.3467 14.6198 33.1601 14.7798L28.6001 19.3398L33.1601 23.8998C33.3201 24.0598 33.4001 24.2598 33.4001 24.4998C33.4001 24.7398 33.3201 24.9398 33.1601 25.0998C33.0001 25.2598 32.8067 25.3398 32.5801 25.3398C32.3534 25.3398 32.1601 25.2598 32.0001 25.0998L26.8401 19.9398C26.6534 19.7798 26.5601 19.5798 26.5601 19.3398Z" fill="#050B20"/>
</g>
<defs>
<clipPath id="clip0_9_1282">
<rect width="12" height="12" fill="white" transform="matrix(1 0 0 -1 24 25.3398)"/>
</clipPath>
</defs>
</svg>
