<svg width="13" height="13" viewBox="0 0 13 13" fill="none" xmlns="http://www.w3.org/2000/svg">
<rect width="13" height="13" fill="#F5F5F5"/>
<g id="details v1">
<rect width="1920" height="7036.19" transform="translate(-1505 -260)" fill="white"/>
<rect width="1920" height="7036.19" transform="translate(-1505 -260)" fill="white"/>
<g id="Section &#226;&#134;&#146; Main">
<g id="Link">
<g id="Background+Border">
<rect x="-10.8701" y="-11.25" width="35" height="35" rx="17.5" fill="white"/>
<rect x="-10.8701" y="-11.25" width="35" height="35" rx="17.5" stroke="#E9E9E9"/>
<g id="Icon" clip-path="url(#clip0_8_42)">
<path id="Vector" d="M10.03 12.25C9.78995 12.25 9.56328 12.1833 9.34995 12.05L6.74995 10.41C6.66995 10.3567 6.58995 10.3567 6.50995 10.41L3.90995 12.05C3.66995 12.21 3.40328 12.27 3.10995 12.23C2.81662 12.19 2.56328 12.0767 2.34995 11.89C2.08328 11.65 1.94995 11.3433 1.94995 10.97V1.53C1.94995 1.18333 2.07662 0.883333 2.32995 0.63C2.58328 0.376667 2.88328 0.25 3.22995 0.25H10.03C10.3766 0.25 10.6766 0.376667 10.93 0.63C11.1833 0.883333 11.31 1.18333 11.31 1.53V10.97C11.31 11.3167 11.1833 11.6167 10.93 11.87C10.6766 12.1233 10.3766 12.25 10.03 12.25ZM6.62995 9.33C6.86995 9.33 7.09662 9.39667 7.30995 9.53L9.90995 11.17C9.93662 11.1967 9.97662 11.21 10.03 11.21C10.0833 11.21 10.13 11.19 10.17 11.15C10.21 11.11 10.23 11.05 10.23 10.97V1.53C10.23 1.45 10.21 1.39 10.17 1.35C10.13 1.31 10.0833 1.29 10.03 1.29H3.22995C3.17662 1.29 3.12995 1.31 3.08995 1.35C3.04995 1.39 3.02995 1.45 3.02995 1.53V10.97C3.02995 11.05 3.06328 11.1167 3.12995 11.17C3.19662 11.2233 3.26995 11.2233 3.34995 11.17L5.94995 9.53C6.16328 9.39667 6.38995 9.33 6.62995 9.33Z" fill="#050B20"/>
</g>
</g>
</g>
</g>
</g>
<defs>
<clipPath id="clip0_8_42">
<rect width="12" height="12" fill="white" transform="matrix(1 0 0 -1 0.629883 12.25)"/>
</clipPath>
</defs>
</svg>
