<svg width="14" height="14" viewBox="0 0 14 14" fill="none" xmlns="http://www.w3.org/2000/svg">
<rect width="14" height="14" fill="#F5F5F5"/>
<g id="details v1">
<rect width="1920" height="7036.19" transform="translate(-1406 -259)" fill="white"/>
<rect width="1920" height="7036.19" transform="translate(-1406 -259)" fill="white"/>
<g id="Section &#226;&#134;&#146; Main">
<g id="Container">
<g id="Link">
<g id="Border">
<rect x="-10.52" y="-10.25" width="35" height="35" rx="17.5" stroke="#E9E9E9"/>
<g id="Icon" clip-path="url(#clip0_8_42)">
<path id="Vector" d="M11.6165 4.91H9.31988C9.17543 4.91 9.05988 4.96056 8.97321 5.06167C8.88654 5.16278 8.84321 5.27833 8.84321 5.40833C8.84321 5.53833 8.88654 5.64667 8.97321 5.73333C9.05988 5.82 9.17543 5.86333 9.31988 5.86333H11.6165C11.761 5.86333 11.8765 5.90667 11.9632 5.99333C12.0499 6.08 12.0932 6.19556 12.0932 6.34V12.3633C12.0932 12.4789 12.0499 12.5872 11.9632 12.6883C11.8765 12.7894 11.761 12.84 11.6165 12.84H2.34321C2.19877 12.84 2.08321 12.7894 1.99654 12.6883C1.90988 12.5872 1.86654 12.4789 1.86654 12.3633V6.34C1.86654 6.19556 1.90988 6.08 1.99654 5.99333C2.08321 5.90667 2.19877 5.86333 2.34321 5.86333H4.63988C4.78432 5.86333 4.89988 5.82 4.98654 5.73333C5.07321 5.64667 5.11654 5.53833 5.11654 5.40833C5.11654 5.27833 5.07321 5.16278 4.98654 5.06167C4.89988 4.96056 4.78432 4.91 4.63988 4.91H2.34321C1.96765 4.91 1.64265 5.04722 1.36821 5.32167C1.09377 5.59611 0.956543 5.93556 0.956543 6.34V12.3633C0.956543 12.7389 1.09377 13.0639 1.36821 13.3383C1.64265 13.6128 1.96765 13.75 2.34321 13.75H11.6165C11.9921 13.75 12.3171 13.6128 12.5915 13.3383C12.866 13.0639 13.0032 12.7389 13.0032 12.3633V6.34C13.0032 5.93556 12.866 5.59611 12.5915 5.32167C12.3171 5.04722 11.9921 4.91 11.6165 4.91ZM9.62321 3.22L7.32654 0.88C7.21099 0.793333 7.09543 0.75 6.97988 0.75C6.86432 0.75 6.74876 0.793333 6.63321 0.88L4.33654 3.22C4.24988 3.30667 4.20654 3.415 4.20654 3.545C4.20654 3.675 4.24988 3.78333 4.33654 3.87C4.42321 3.95667 4.53154 4 4.66154 4C4.79154 4 4.89988 3.95667 4.98654 3.87L6.50321 2.35333V10.0233C6.50321 10.1678 6.55377 10.2833 6.65488 10.37C6.75599 10.4567 6.86432 10.5 6.97988 10.5C7.09543 10.5 7.20376 10.4567 7.30488 10.37C7.40599 10.2833 7.45654 10.1678 7.45654 10.0233V2.35333L8.97321 3.87C9.05988 3.95667 9.16821 4 9.29821 4C9.42821 4 9.53654 3.94944 9.62321 3.84833C9.70988 3.74722 9.75321 3.63889 9.75321 3.52333C9.75321 3.40778 9.70988 3.30667 9.62321 3.22Z" fill="#050B20"/>
</g>
</g>
</g>
</g>
</g>
</g>
<defs>
<clipPath id="clip0_8_42">
<rect width="13" height="13" fill="white" transform="matrix(1 0 0 -1 0.47998 13.75)"/>
</clipPath>
</defs>
</svg>
