<svg width="8" height="6" viewBox="0 0 8 6" fill="none" xmlns="http://www.w3.org/2000/svg">
<mask id="path-1-inside-1_9_61" fill="white">
<path d="M0 0.5H8V5.5H0V0.5Z"/>
</mask>
<g clip-path="url(#paint0_diamond_9_61_clip_path)" data-figma-skip-parse="true" mask="url(#path-1-inside-1_9_61)"><g transform="matrix(0.004 0 0 0.005 4 0.5)"><rect x="0" y="0" width="2250" height="2000" fill="url(#paint0_diamond_9_61)" opacity="1" shape-rendering="crispEdges"/><rect x="0" y="0" width="2250" height="2000" transform="scale(1 -1)" fill="url(#paint0_diamond_9_61)" opacity="1" shape-rendering="crispEdges"/><rect x="0" y="0" width="2250" height="2000" transform="scale(-1 1)" fill="url(#paint0_diamond_9_61)" opacity="1" shape-rendering="crispEdges"/><rect x="0" y="0" width="2250" height="2000" transform="scale(-1)" fill="url(#paint0_diamond_9_61)" opacity="1" shape-rendering="crispEdges"/></g></g><path d="M0 0.5V-4.5H-4V0.5H0ZM8 0.5H12V-4.5H8V0.5ZM0 5.5H8V-4.5H0V5.5ZM4 0.5V5.5H12V0.5H4ZM4 5.5V0.5H-4V5.5H4Z" data-figma-gradient-fill="{&#34;type&#34;:&#34;GRADIENT_DIAMOND&#34;,&#34;stops&#34;:[{&#34;color&#34;:{&#34;r&#34;:0.019607843831181526,&#34;g&#34;:0.043137256056070328,&#34;b&#34;:0.12549020349979401,&#34;a&#34;:1.0},&#34;position&#34;:0.99999988079071045},{&#34;color&#34;:{&#34;r&#34;:0.0,&#34;g&#34;:0.0,&#34;b&#34;:0.0,&#34;a&#34;:0.0},&#34;position&#34;:1.0}],&#34;stopsVar&#34;:[{&#34;color&#34;:{&#34;r&#34;:0.019607843831181526,&#34;g&#34;:0.043137256056070328,&#34;b&#34;:0.12549020349979401,&#34;a&#34;:1.0},&#34;position&#34;:0.99999988079071045},{&#34;color&#34;:{&#34;r&#34;:0.0,&#34;g&#34;:0.0,&#34;b&#34;:0.0,&#34;a&#34;:0.0},&#34;position&#34;:1.0}],&#34;transform&#34;:{&#34;m00&#34;:8.0,&#34;m01&#34;:0.0,&#34;m02&#34;:0.0,&#34;m10&#34;:0.0,&#34;m11&#34;:10.0,&#34;m12&#34;:-4.50},&#34;opacity&#34;:1.0,&#34;blendMode&#34;:&#34;NORMAL&#34;,&#34;visible&#34;:true}" mask="url(#path-1-inside-1_9_61)"/>
<defs>
<clipPath id="paint0_diamond_9_61_clip_path"><path d="M0 0.5V-4.5H-4V0.5H0ZM8 0.5H12V-4.5H8V0.5ZM0 5.5H8V-4.5H0V5.5ZM4 0.5V5.5H12V0.5H4ZM4 5.5V0.5H-4V5.5H4Z" mask="url(#path-1-inside-1_9_61)"/></clipPath><linearGradient id="paint0_diamond_9_61" x1="0" y1="0" x2="500" y2="500" gradientUnits="userSpaceOnUse">
<stop offset="1" stop-color="#050B20"/>
<stop offset="1" stop-opacity="0"/>
</linearGradient>
</defs>
</svg>
