<svg width="16" height="13" viewBox="0 0 16 13" fill="none" xmlns="http://www.w3.org/2000/svg">
<path d="M14.3247 3.76807C14.3247 3.91455 14.3247 4.03174 14.3247 4.17822C14.3247 8.25049 11.2485 12.9087 5.59424 12.9087C3.83643 12.9087 2.2251 12.4106 0.877441 11.5317C1.11182 11.561 1.34619 11.5903 1.60986 11.5903C3.04541 11.5903 4.36377 11.0923 5.41846 10.272C4.0708 10.2427 2.92822 9.36377 2.54736 8.1333C2.75244 8.1626 2.92822 8.19189 3.1333 8.19189C3.39697 8.19189 3.68994 8.1333 3.92432 8.07471C2.51807 7.78174 1.46338 6.55127 1.46338 5.05713V5.02783C1.87354 5.26221 2.37158 5.37939 2.86963 5.40869C2.02002 4.85205 1.49268 3.91455 1.49268 2.85986C1.49268 2.27393 1.63916 1.74658 1.90283 1.30713C3.42627 3.15283 5.71143 4.3833 8.26025 4.52979C8.20166 4.29541 8.17236 4.06104 8.17236 3.82666C8.17236 2.12744 9.54932 0.750488 11.2485 0.750488C12.1274 0.750488 12.9185 1.10205 13.5044 1.71729C14.1782 1.5708 14.8521 1.30713 15.438 0.955566C15.2036 1.68799 14.7349 2.27393 14.0903 2.65479C14.7056 2.59619 15.3208 2.42041 15.8481 2.18604C15.438 2.80127 14.9106 3.32861 14.3247 3.76807Z" fill="white"/>
<a href="https://www.figma.com/design/PzQUNVEIeMrv8HjdXbjYra?node-id=19-2">
<rect fill="black" fill-opacity="0" x="0.1875" y="-1.125" width="15" height="17.25"/>
</a>
</svg>
